<?xml version="1.0" encoding="UTF-8" standalone="no"?>
<svg
   xmlns:dc="http://purl.org/dc/elements/1.1/"
   xmlns:cc="http://creativecommons.org/ns#"
   xmlns:rdf="http://www.w3.org/1999/02/22-rdf-syntax-ns#"
   xmlns:svg="http://www.w3.org/2000/svg"
   xmlns="http://www.w3.org/2000/svg"
   viewBox="0 0 469 600"
   id="svg2"
   height="600"
   width="469"
   version="1.1">
  <metadata
     id="metadata82">
    <rdf:RDF>
      <cc:Work
         rdf:about="">
        <dc:format>image/svg+xml</dc:format>
        <dc:type
           rdf:resource="http://purl.org/dc/dcmitype/StillImage" />
        <dc:title></dc:title>
      </cc:Work>
    </rdf:RDF>
  </metadata>
  <defs
     id="defs80" />
  <g
     transform="matrix(1.0583334,0,0,1.0583334,-80.882283,-145.49989)"
     id="Layer1000">
    <path
       id="path5"
       style="fill:#008bca;fill-rule:evenodd"
       d="M 297.6528,704.4093 96.8405,137.4802 l 401.6247,0 -200.8124,566.9291 z" />
    <path
       id="path7"
       style="fill:#ffffff;fill-rule:evenodd"
       d="m 297.6528,648.8446 174.5587,-492.8117 -349.1174,0 174.5587,492.8117 z" />
    <path
       id="path9"
       style="fill:#008bca;fill-rule:evenodd"
       d="M 297.6536,186.0749 A 191.9363,191.9364 0 0 1 489.59,378.0113 191.9363,191.9364 0 1 1 297.6536,186.0749 Z" />
    <path
       id="path11"
       style="fill:#ffffff;fill-rule:evenodd"
       d="M 297.6536,204.6271 A 173.3841,173.3842 0 0 1 471.0378,378.0113 173.3841,173.3842 0 1 1 297.6536,204.6271 Z" />
    <path
       id="path13"
       style="fill:#008bca;fill-rule:evenodd"
       d="m 297.6536,258.2995 c 53.7377,0 99.5423,34.028 117.0411,81.7072 l -33.5867,0 c 1.7439,-8.2953 2.0568,-17.2044 -0.3138,-26.1909 -10.4715,-12.2985 -26.7878,-24.1292 -41.8288,-29.7876 -14.4691,3.9427 -26.7096,10.3376 -35.4194,18.695 1.7705,12.4711 1.5487,25.9005 -0.6639,37.2835 l -4.1113,0 0.0299,-0.1492 c 2.2399,-11.0677 2.4908,-24.318 0.7517,-36.5753 -9.364,-7.6653 -23.2306,-13.7021 -39.7082,-16.1066 -11.5927,6.1569 -23.7218,15.0846 -32.7882,24.1986 -2.8788,8.6235 -5.0268,19.1281 -4.9873,28.6325 l -41.4561,0 c 17.4987,-47.6792 63.3033,-81.7072 117.041,-81.7072 z m 123.0036,144.7976 c -9.6407,59.2381 -61.0456,104.4748 -123.0036,104.4748 -61.9579,0 -113.3628,-45.2367 -123.0035,-104.4748 l 4.0798,0 c 3.9315,23.3452 14.5724,44.4148 29.8707,61.1562 -0.8502,-7.8024 -0.467,-18.6797 0.8873,-26.9168 -6.2844,-10.5232 -11.1951,-22.8217 -13.702,-34.2394 l 4.1339,0 c 2.5102,10.9265 7.2862,22.6781 13.3285,32.6689 11.6266,7.512 25.0907,11.3684 37.5481,9.9044 4.1605,-5.8786 8.2291,-11.8443 12.3888,-17.7133 2.8974,-4.0879 5.8593,-8.2816 8.9261,-12.363 -2.0642,-2.8022 -4.4493,-7.3362 -6.6982,-12.497 l 69.6475,0 c -2.1053,4.8034 -4.4292,9.239 -6.8031,12.555 8.3268,8.4219 15.9703,19.4944 21.2947,30.2426 16.426,2.2924 29.486,-2.1626 40.9424,-11.6629 5.7334,-9.3132 10.1617,-20.3526 12.7824,-31.1347 l 4.1469,0 c -2.4852,10.6288 -6.6756,21.5206 -12.1348,30.9693 0.1742,6.6756 0.288,13.5343 -0.2267,19.9695 10.8128,-14.787 18.3433,-32.1236 21.5133,-50.9388 l 4.0815,0 z M 272.855,264.8912 c -5.2019,5.3293 -10.6458,12.2888 -15.1636,18.8611 -11.7097,6.2562 -23.8759,15.1983 -33.1141,24.397 -8.8978,1.7608 -19.7815,4.1016 -26.3869,6.5828 17.2648,-25.1245 43.7969,-43.3864 74.6646,-49.8409 z m 122.8648,47.8453 c -3.4999,-0.7122 -7.6951,-1.6197 -12.5477,-2.3375 -10.6764,-12.2381 -26.6749,-23.8243 -41.7272,-29.7376 -3.679,-4.7567 -8.5356,-10.1989 -12.1501,-14.1239 27.1314,7.3612 50.4701,23.9517 66.425,46.199 z M 274.7586,484.747 c 13.8367,3.6879 34.3297,4.6897 48.2575,1.1809 9.2939,-10.5675 18.5998,-24.3606 22.9314,-38.2224 -5.4205,-10.9482 -13.3689,-22.3086 -21.9102,-30.5563 -15.2741,1.8319 -32.1687,2.6828 -48.3745,0.4308 -3.1627,4.1879 -6.2093,8.5082 -9.1874,12.709 -4.0597,5.727 -8.0315,11.5468 -12.0879,17.2875 3.0764,14.4755 9.1656,24.4292 20.3711,37.1705 z m 49.4263,5.0438 c -14.6974,3.7476 -36.0687,2.732 -50.654,-1.1962 -5.9698,2.678 -13.5689,5.356 -19.3862,6.8466 13.4987,5.2253 28.1679,8.0976 43.5089,8.0976 14.0408,0 27.5202,-2.4077 40.0527,-6.8223 -3.8444,-1.4487 -9.1076,-4.3017 -13.5214,-6.9257 z" />
    <path
       id="path15"
       style="fill:#1b1918;fill-rule:evenodd"
       d="m 76.4242,329.1173 0,84.8692 442.4275,0 0,-84.8692 -442.4275,0 z" />
    <path
       id="path17"
       style="fill:#ffffff;fill-rule:evenodd"
       d="m 89.3294,342.0232 0,59.0574 416.6163,0 0,-59.0574 -416.6163,0 z" />
    <g
       id="Layer1001">
      <path
         id="path20"
         style="fill:#1b1918;fill-rule:evenodd"
         d="m 184.536,305.6205 c 0.6848,-0.2984 1.4745,-0.7582 2.3698,-1.3688 0.8962,-0.6098 1.823,-1.3301 2.7812,-2.1819 0.9575,-0.8534 1.8722,-1.7987 2.7441,-2.8264 1.5415,-1.8487 2.6861,-3.6225 3.4354,-5.3091 0.7599,-1.6883 1.1648,-3.2652 1.2204,-4.7284 0.067,-1.464 -0.1621,-2.7909 -0.6937,-3.9742 -0.5267,-1.1898 -1.2962,-2.1989 -2.3085,-3.0491 -1.1204,-0.9397 -2.3343,-1.539 -3.6306,-1.7753 -1.3019,-0.242 -2.7255,-0.1323 -4.2686,0.321 -1.5415,0.4541 -3.2345,1.2559 -5.0809,2.4086 -1.3616,0.8421 -2.5102,1.5003 -3.4572,1.9665 -0.9389,0.4703 -1.7358,0.7211 -2.3884,0.7639 -0.6517,0.0435 -1.23,-0.1468 -1.7213,-0.5711 -0.4081,-0.3436 -0.6711,-0.801 -0.7808,-1.3809 -0.1089,-0.5792 -0.0185,-1.2527 0.2549,-2.0109 0.2662,-0.7631 0.7679,-1.5786 1.5003,-2.4626 0.7316,-0.8599 1.4624,-1.5971 2.1835,-2.2174 0.722,-0.6074 1.3955,-1.1099 2.0255,-1.5108 0.6299,-0.3912 1.1704,-0.697 1.6213,-0.9091 l -3.1983,-4.9986 c -1.0083,0.5041 -2.1036,1.2196 -3.2781,2.1617 -1.1696,0.9373 -2.4053,2.169 -3.6959,3.6951 -1.3237,1.5899 -2.3303,3.162 -3.024,4.7123 -0.6897,1.5544 -1.0849,3.049 -1.1777,4.4703 -0.0968,1.4277 0.1033,2.7417 0.5776,3.9339 0.4799,1.197 1.2325,2.2246 2.2585,3.0974 1.1607,0.9623 2.4489,1.51 3.8572,1.6479 1.4092,0.1379 2.9055,-0.0694 4.5018,-0.6243 1.5971,-0.555 3.2563,-1.3874 4.9865,-2.4876 1.2252,-0.7986 2.2835,-1.3971 3.1676,-1.7899 0.8856,-0.392 1.6422,-0.5848 2.273,-0.5663 0.6364,0.0121 1.2035,0.2267 1.6883,0.6461 0.5283,0.4429 0.8502,0.9849 0.9615,1.6351 0.1113,0.6493 0.0121,1.3817 -0.3066,2.1931 -0.3161,0.8123 -0.863,1.6923 -1.6446,2.624 -0.7389,0.8679 -1.5197,1.6535 -2.3594,2.3658 -0.8357,0.7074 -1.6729,1.3204 -2.5013,1.8504 -0.8284,0.5299 -1.5907,0.9574 -2.2981,1.2825 l 3.4056,4.9671 z" />
      <path
         id="path22"
         style="fill:#1b1918;fill-rule:evenodd"
         d="m 221.6823,260.9299 6.8135,5.0389 7.0612,-4.9171 -26.8644,-19.4121 -8.5591,5.9617 9.1051,31.7792 6.7192,-4.6792 -2.5352,-8.0186 8.2597,-5.7528 z m -10.3416,0.755 -2.0811,-6.6385 c -0.1928,-0.6114 -0.4146,-1.2486 -0.6622,-1.9238 -0.2485,-0.6759 -0.4969,-1.3519 -0.7518,-2.0222 -0.2597,-0.6767 -0.4928,-1.3164 -0.7074,-1.9294 l 0.0847,-0.0597 c 0.5009,0.4138 1.0268,0.851 1.5834,1.3003 0.5549,0.4622 1.1172,0.9195 1.6818,1.3656 0.5622,0.4573 1.1091,0.8768 1.6382,1.272 l 5.5899,4.1944 -6.3755,4.4413 z" />
      <path
         id="path24"
         style="fill:#1b1918;fill-rule:evenodd"
         d="m 255.2344,253.5727 -2.5973,-9.0567 c -0.7018,-2.4465 -1.3874,-4.7445 -2.0666,-6.8909 -0.6694,-2.1497 -1.3591,-4.2058 -2.0576,-6.1699 l 0.2008,-0.058 c 0.8816,1.0268 1.8181,2.0544 2.8216,3.0941 1.001,1.0325 2.0238,2.0432 3.0587,3.0337 1.034,0.9906 2.0439,1.9246 3.0296,2.8095 l 10.5449,9.5294 8.0202,-2.2997 -8.6227,-30.0707 -7.0184,2.0125 2.5078,8.7445 c 0.6509,2.2683 1.3148,4.4276 1.9988,6.4683 0.6872,2.0488 1.4269,4.025 2.2109,5.9408 l -0.1008,0.029 c -0.8445,-0.9889 -1.7367,-1.9891 -2.6659,-2.9934 -0.9413,-1.0099 -1.8939,-2.0004 -2.8707,-2.9756 -0.9817,-0.9655 -1.9593,-1.8842 -2.9329,-2.7562 l -10.1779,-9.0075 -8.9228,2.5586 8.6227,30.0707 7.0176,-2.0125 z" />
      <path
         id="path26"
         style="fill:#1b1918;fill-rule:evenodd"
         d="m 298.1562,246.3777 0.6574,-9.3996 c 0.1774,-2.5384 0.3186,-4.9324 0.4146,-7.1813 0.1064,-2.2496 0.1613,-4.417 0.1758,-6.5021 l 0.2097,0.0145 c 0.4767,1.2664 1.0059,2.5521 1.5931,3.8726 0.5872,1.3131 1.2027,2.6126 1.8359,3.8967 0.634,1.285 1.2615,2.5078 1.8866,3.6766 l 6.649,12.5615 8.3243,0.5815 2.1811,-31.2056 -7.283,-0.5098 -0.6348,9.0753 c -0.1645,2.3537 -0.2791,4.6098 -0.3331,6.7611 -0.0557,2.1601 -0.0363,4.2702 0.0452,6.3384 l -0.1041,-0.007 c -0.4557,-1.218 -0.9518,-2.4618 -1.4818,-3.7241 -0.5396,-1.2705 -1.0961,-2.5272 -1.6793,-3.7782 -0.5929,-1.243 -1.1962,-2.4409 -1.8141,-3.5927 l -6.4828,-11.9452 -9.2608,-0.6477 -2.1811,31.2064 7.2822,0.509 z" />
      <path
         id="path28"
         style="fill:#1b1918;fill-rule:evenodd"
         d="m 362.3017,227.6093 c -2.3691,-1.047 -4.676,-1.6165 -6.9273,-1.7294 -2.2464,-0.1033 -4.3565,0.2113 -6.319,0.9453 -1.9754,0.7389 -3.7363,1.8512 -5.2826,3.3386 -1.5398,1.4907 -2.7941,3.3031 -3.7612,5.4552 -0.7292,1.6399 -1.1995,3.2934 -1.4148,4.9502 -0.2146,1.6576 -0.1686,3.2862 0.1427,4.8728 0.3041,1.5834 0.8696,3.0885 1.7085,4.5203 0.8292,1.4277 1.9245,2.728 3.2901,3.9129 1.3552,1.1865 2.9878,2.2012 4.8817,3.0538 2.369,1.0454 4.6719,1.6649 6.9063,1.8383 2.2319,0.1807 4.3323,-0.0693 6.3005,-0.7517 1.9649,-0.6744 3.7306,-1.777 5.3123,-3.2991 1.5738,-1.5261 2.8926,-3.4628 3.9525,-5.819 0.7074,-1.5906 1.1688,-3.2046 1.3906,-4.834 0.2129,-1.6326 0.1766,-3.2402 -0.1194,-4.8196 -0.2952,-1.5801 -0.8582,-3.0925 -1.6931,-4.5307 -0.8268,-1.4342 -1.9383,-2.7595 -3.3257,-3.9621 -1.3914,-1.2116 -3.0684,-2.2545 -5.0421,-3.1418 z m -2.4272,5.0663 c 1.2519,0.5655 2.2424,1.3116 2.9765,2.2481 0.7364,0.9292 1.2309,1.9794 1.4882,3.1523 0.2653,1.176 0.3049,2.4134 0.1258,3.7144 -0.1791,1.3003 -0.5598,2.6038 -1.1389,3.9041 -0.6195,1.3922 -1.3705,2.6078 -2.2336,3.6289 -0.8671,1.0277 -1.8237,1.8294 -2.8731,2.4126 -1.0454,0.576 -2.1577,0.8938 -3.3281,0.9567 -1.1745,0.0532 -2.3723,-0.1839 -3.6064,-0.7244 -1.2116,-0.5485 -2.2037,-1.2688 -2.9571,-2.1633 -0.7558,-0.8873 -1.2809,-1.9093 -1.5834,-3.0676 -0.2968,-1.1486 -0.363,-2.3892 -0.1928,-3.7112 0.1646,-1.3309 0.5574,-2.7054 1.1866,-4.1186 0.6235,-1.3995 1.3712,-2.6086 2.2424,-3.6258 0.8751,-1.0244 1.8399,-1.8229 2.8965,-2.4029 1.0575,-0.5783 2.1771,-0.8937 3.3588,-0.9429 1.1825,-0.0492 2.3973,0.1952 3.6386,0.7396 z" />
      <path
         id="path30"
         style="fill:#1b1918;fill-rule:evenodd"
         d="m 396.3861,247.3843 -19.2596,24.6511 6.2464,4.88 19.2588,-24.651 -6.2456,-4.8801 z" />
      <path
         id="path32"
         style="fill:#1b1918;fill-rule:evenodd"
         d="m 395.8747,286.8159 c 0.1629,0.7283 0.463,1.5922 0.8921,2.5876 0.4275,0.9954 0.9575,2.0423 1.6108,3.1458 0.655,1.1035 1.4084,2.1811 2.2505,3.2329 1.5213,1.8665 3.0434,3.3289 4.5566,4.3856 1.5124,1.068 2.9829,1.7665 4.4082,2.1004 1.4244,0.3453 2.7707,0.3735 4.0339,0.0775 1.2688,-0.2896 2.4061,-0.8526 3.4329,-1.6842 1.1365,-0.9204 1.9561,-1.998 2.436,-3.2257 0.4864,-1.2317 0.6501,-2.6506 0.4985,-4.2509 -0.15,-1.6003 -0.6155,-3.4152 -1.3946,-5.4471 -0.5663,-1.4979 -0.993,-2.7505 -1.2697,-3.7685 -0.2831,-1.0123 -0.3767,-1.8423 -0.2944,-2.4908 0.0815,-0.6486 0.3783,-1.1793 0.8889,-1.5802 0.4154,-0.3364 0.9147,-0.5066 1.5044,-0.5033 0.5896,0.004 1.2333,0.221 1.9254,0.6332 0.6985,0.4073 1.4035,1.0558 2.1302,1.9431 0.705,0.8816 1.2898,1.7399 1.7609,2.5659 0.4589,0.8251 0.8235,1.5825 1.097,2.277 0.2629,0.6929 0.4606,1.2818 0.5824,1.7649 l 5.5172,-2.1851 c -0.3033,-1.0865 -0.7961,-2.2981 -1.4963,-3.6314 -0.6961,-1.3261 -1.6705,-2.7748 -2.9223,-4.3323 -1.3076,-1.6036 -2.6586,-2.8902 -4.0484,-3.8686 -1.3947,-0.9728 -2.7861,-1.6463 -4.1638,-2.0077 -1.3825,-0.3678 -2.7102,-0.4218 -3.971,-0.1847 -1.2672,0.2436 -2.4198,0.7865 -3.4717,1.6262 -1.1663,0.9566 -1.9504,2.1157 -2.3545,3.4725 -0.4041,1.3559 -0.4856,2.8651 -0.246,4.538 0.2412,1.6737 0.7413,3.4604 1.4906,5.3688 0.5501,1.3552 0.9365,2.5086 1.1527,3.4516 0.2162,0.9437 0.2613,1.7237 0.1226,2.3383 -0.1331,0.6228 -0.4525,1.139 -0.9575,1.535 -0.5348,0.434 -1.1284,0.6461 -1.7882,0.6324 -0.6582,-0.0153 -1.3584,-0.2524 -2.094,-0.7195 -0.7373,-0.4662 -1.4963,-1.1712 -2.2618,-2.1157 -0.7114,-0.8905 -1.3325,-1.8069 -1.8721,-2.7675 -0.5348,-0.9551 -0.9769,-1.894 -1.3398,-2.8087 -0.3614,-0.9139 -0.6348,-1.7439 -0.8196,-2.5005 l -5.5261,2.3957 z" />
    </g>
    <g
       id="Layer1002">
      <path
         id="path35"
         style="fill:#1b1918;fill-rule:evenodd"
         d="m 151.3114,447.0635 c -0.0162,0.567 0.0492,1.2518 0.1871,2.0528 0.1387,0.7994 0.346,1.652 0.6397,2.5602 0.2936,0.9099 0.6711,1.8133 1.1203,2.7078 0.8212,1.5907 1.7222,2.878 2.6958,3.8613 0.9695,0.9913 1.9818,1.7012 3.0272,2.1303 1.0462,0.438 2.0908,0.6291 3.1361,0.567 1.047,-0.0572 2.0464,-0.3363 3.0119,-0.83 1.0688,-0.5461 1.9214,-1.2502 2.5369,-2.1109 0.6219,-0.8607 1.0292,-1.9044 1.226,-3.1224 0.1976,-1.2188 0.1912,-2.6385 -0.0169,-4.259 -0.1476,-1.1946 -0.2348,-2.1875 -0.2501,-2.9844 -0.0218,-0.7946 0.0678,-1.4286 0.2598,-1.9053 0.1919,-0.4743 0.5275,-0.8348 1.005,-1.072 0.3904,-0.2 0.8139,-0.2629 1.2745,-0.1871 0.4589,0.0766 0.9195,0.321 1.3793,0.7171 0.4638,0.3936 0.8864,0.9687 1.2809,1.7253 0.3767,0.7502 0.6638,1.4673 0.8695,2.1456 0.196,0.6768 0.3307,1.2898 0.4082,1.8448 0.0693,0.5533 0.1072,1.0195 0.1081,1.3962 l 4.738,-0.9421 c -0.0234,-0.8518 -0.1694,-1.8221 -0.4549,-2.9103 -0.2823,-1.0817 -0.7574,-2.29 -1.4285,-3.616 -0.7058,-1.3665 -1.5068,-2.5022 -2.3997,-3.4104 -0.8986,-0.9042 -1.852,-1.585 -2.8571,-2.0295 -1.0066,-0.4501 -2.0334,-0.6574 -3.0643,-0.6388 -1.0373,0.0226 -2.044,0.2839 -3.0305,0.7808 -1.0986,0.5695 -1.9391,1.3398 -2.5206,2.3053 -0.584,0.9663 -0.9446,2.0867 -1.0866,3.3709 -0.1419,1.2849 -0.1016,2.6868 0.1073,4.2121 0.163,1.0857 0.2372,1.9972 0.221,2.732 -0.0169,0.7341 -0.1355,1.3253 -0.3646,1.7689 -0.2258,0.4493 -0.5767,0.7954 -1.0494,1.0301 -0.5033,0.2573 -1.009,0.3412 -1.5196,0.2476 -0.5122,-0.0935 -1.0115,-0.3597 -1.4947,-0.8034 -0.484,-0.442 -0.9373,-1.0663 -1.3495,-1.8713 -0.3799,-0.7574 -0.6856,-1.5213 -0.9179,-2.3102 -0.2291,-0.7824 -0.3888,-1.5422 -0.4928,-2.2738 -0.1025,-0.7308 -0.1533,-1.3882 -0.1485,-1.9779 l -4.7864,1.0987 z" />
      <path
         id="path37"
         style="fill:#1b1918;fill-rule:evenodd"
         d="m 179.589,480.8608 -3.8758,5.6979 4.0064,4.9865 14.916,-22.4248 -4.855,-6.044 -24.9923,9.8819 3.8121,4.7454 6.3021,-2.6764 4.6865,5.8335 z m -0.7663,-7.888 5.218,-2.202 c 0.4791,-0.2033 0.98,-0.4316 1.51,-0.684 0.5307,-0.2517 1.0615,-0.5042 1.5874,-0.7615 0.5316,-0.2597 1.0333,-0.4977 1.5148,-0.7195 l 0.0484,0.0605 c -0.3202,0.4227 -0.6557,0.8671 -1.0034,1.3366 -0.3557,0.4678 -0.7082,0.9429 -1.051,1.4172 -0.3533,0.4735 -0.6768,0.9325 -0.9809,1.3753 l -3.2264,4.6808 -3.6169,-4.5034 z" />
      <path
         id="path39"
         style="fill:#1b1918;fill-rule:evenodd"
         d="m 205.7016,480.4647 -16.843,19.3758 4.4469,3.8653 16.8438,-19.375 -4.4477,-3.8661 z" />
      <path
         id="path41"
         style="fill:#1b1918;fill-rule:evenodd"
         d="m 209.1281,515.4606 3.8653,-6.6957 c 1.0446,-1.8092 2.0117,-3.5241 2.8966,-5.1462 0.8897,-1.6189 1.7173,-3.1942 2.4868,-4.7211 l 0.1347,0.0774 c -0.1411,1.0841 -0.2549,2.1988 -0.342,3.3579 -0.0847,1.1535 -0.1452,2.3062 -0.1887,3.4532 -0.0436,1.1478 -0.067,2.2488 -0.0751,3.3079 l -0.1169,11.3677 5.3721,3.1014 12.8365,-22.2336 -4.7002,-2.7135 -3.733,6.4651 c -0.968,1.6769 -1.8665,3.2982 -2.6877,4.8631 -0.8243,1.5689 -1.5809,3.1264 -2.2795,4.6727 l -0.0677,-0.0395 c 0.1387,-1.0413 0.2597,-2.115 0.363,-3.2128 0.1016,-1.1074 0.1863,-2.2093 0.2508,-3.316 0.0557,-1.1042 0.0871,-2.1786 0.0936,-3.2232 l 0.003,-10.8619 -5.9754,-3.4499 -12.8373,22.2336 4.7009,2.7134 z" />
      <path
         id="path43"
         style="fill:#1b1918;fill-rule:evenodd"
         d="m 240.8347,531.0953 5.5713,1.9182 6.7715,-19.6646 6.745,2.3223 1.5866,-4.6098 -18.9878,-6.5377 -1.5874,4.609 6.6715,2.2973 -6.7707,19.6653 z" />
      <path
         id="path45"
         style="fill:#1b1918;fill-rule:evenodd"
         d="m 303.1919,527.3405 -9.7238,-0.3396 -0.1589,4.5308 4.0299,0.1404 -0.1872,5.3672 c -0.2436,0.0936 -0.6203,0.1557 -1.1196,0.2025 -0.5057,0.0459 -1.0937,0.0629 -1.76,0.0403 -1.214,-0.0428 -2.3174,-0.2718 -3.312,-0.6743 -0.9945,-0.4098 -1.8471,-0.9865 -2.5521,-1.7286 -0.7106,-0.7421 -1.2487,-1.6383 -1.6124,-2.6925 -0.3646,-1.0478 -0.5235,-2.2352 -0.484,-3.5677 0.0556,-1.4019 0.3186,-2.6183 0.7937,-3.6507 0.4686,-1.0317 1.1131,-1.873 1.9189,-2.5377 0.8115,-0.6638 1.7472,-1.1454 2.8111,-1.4511 1.0575,-0.3065 2.2134,-0.438 3.4467,-0.3944 0.9494,0.0331 1.7931,0.1129 2.5207,0.2275 0.7251,0.1201 1.3728,0.2774 1.9367,0.4613 0.5678,0.1856 1.0849,0.3937 1.5479,0.6332 l 1.4043,-4.684 c -0.4195,-0.1984 -0.9817,-0.3968 -1.6786,-0.605 -0.6969,-0.2024 -1.5051,-0.3831 -2.4376,-0.5364 -0.9332,-0.1468 -1.9568,-0.246 -3.0861,-0.292 -2.1513,-0.075 -4.1436,0.1541 -5.9658,0.6873 -1.8294,0.534 -3.4353,1.3478 -4.813,2.4497 -1.3761,1.101 -2.4643,2.4666 -3.2652,4.1041 -0.801,1.6422 -1.2487,3.5329 -1.3422,5.6761 -0.0436,1.2559 0.0564,2.4602 0.3065,3.6064 0.2452,1.1454 0.6211,2.2134 1.1365,3.2031 0.5082,0.9825 1.1502,1.8697 1.9117,2.6449 1.1551,1.1656 2.5981,2.073 4.3339,2.7119 1.7302,0.6388 3.7863,1.0034 6.1618,1.0857 1.1631,0.0346 2.2956,-0.009 3.3991,-0.1235 1.1026,-0.1129 2.1173,-0.2621 3.0409,-0.4517 0.9317,-0.1903 1.7084,-0.3791 2.3279,-0.567 l 0.4703,-13.4762 z" />
      <path
         id="path47"
         style="fill:#1b1918;fill-rule:evenodd"
         d="m 316.9552,540.7344 5.7641,-1.0163 -1.7592,-9.9779 1.7181,-0.3033 c 0.7953,-0.1403 1.4857,-0.1331 2.0681,0.002 0.5872,0.1412 1.1059,0.4759 1.5673,1.0075 0.4598,0.5235 0.8969,1.2914 1.3188,2.3069 0.6461,1.5036 1.2091,2.7256 1.6834,3.6677 0.4824,0.9462 0.8575,1.5891 1.1156,1.9367 l 5.9552,-1.0502 c -0.1702,-0.2275 -0.371,-0.5856 -0.6186,-1.0575 -0.2404,-0.4727 -0.509,-1.0252 -0.8034,-1.6568 -0.2961,-0.6316 -0.605,-1.3051 -0.9252,-2.0093 -0.3219,-0.7098 -0.6485,-1.4067 -0.9817,-2.1028 -0.5186,-1.1204 -1.126,-2.0311 -1.8076,-2.7369 -0.6881,-0.6969 -1.5019,-1.1526 -2.457,-1.3591 l -0.0193,-0.1113 c 0.5243,-0.2993 1.022,-0.6768 1.4914,-1.1406 0.4759,-0.4638 0.8808,-0.9937 1.2269,-1.5955 0.3404,-0.6017 0.5848,-1.2639 0.7227,-1.9714 0.142,-0.7146 0.1468,-1.4696 0.0137,-2.2657 -0.2041,-1.1567 -0.5945,-2.144 -1.1591,-2.9603 -0.5646,-0.822 -1.2938,-1.4608 -2.1819,-1.923 -1.0349,-0.5461 -2.2642,-0.8574 -3.6879,-0.9292 -1.422,-0.071 -3.0845,0.0669 -4.9865,0.4089 -1.5777,0.2783 -3.0135,0.5832 -4.3194,0.9155 -1.3067,0.3283 -2.4174,0.6526 -3.337,0.976 l 4.3985,24.9455 z m 2.0601,-22.0231 c 0.1936,-0.0927 0.5033,-0.1984 0.9171,-0.3033 0.4219,-0.1064 0.9849,-0.2258 1.6851,-0.3492 0.8969,-0.1581 1.6826,-0.1614 2.3658,-0.0105 0.6824,0.15 1.2405,0.4509 1.6681,0.905 0.4355,0.4582 0.7195,1.0591 0.8534,1.8213 0.1298,0.7381 0.058,1.4084 -0.2154,2.0174 -0.2686,0.6017 -0.7227,1.1139 -1.3575,1.5285 -0.6357,0.4146 -1.4366,0.7107 -2.4086,0.8889 l -2.2908,0.4042 -1.2172,-6.9023 z" />
      <path
         id="path49"
         style="fill:#1b1918;fill-rule:evenodd"
         d="m 358.5589,523.0654 4.1912,5.4705 5.9932,-2.2343 -16.5954,-21.2116 -7.2652,2.7086 1.5205,26.8313 5.7036,-2.1262 -0.5582,-6.8248 7.0103,-2.6135 z m -7.7282,-1.7527 -0.4492,-5.6464 c -0.0428,-0.5186 -0.1017,-1.0655 -0.1743,-1.6487 -0.0718,-0.5824 -0.1444,-1.1664 -0.2234,-1.7455 -0.0799,-0.5864 -0.1476,-1.1373 -0.2065,-1.6649 l 0.0726,-0.0274 c 0.3009,0.438 0.6162,0.8953 0.9534,1.3729 0.3323,0.4847 0.6719,0.9695 1.0147,1.4446 0.338,0.4832 0.6728,0.9349 0.997,1.3624 l 3.429,4.5348 -5.4133,2.0182 z" />
      <path
         id="path51"
         style="fill:#1b1918;fill-rule:evenodd"
         d="m 381.7484,518.5524 4.9422,-3.2095 -11.3274,-17.4423 5.9827,-3.8847 -2.6554,-4.0887 -16.8422,10.9369 2.6554,4.0887 5.9174,-3.8427 11.3273,17.4423 z" />
      <path
         id="path53"
         style="fill:#1b1918;fill-rule:evenodd"
         d="m 384.5974,485.0528 17.1785,19.0789 4.38,-3.9428 -17.1794,-19.0789 -4.3791,3.9428 z" />
      <path
         id="path55"
         style="fill:#1b1918;fill-rule:evenodd"
         d="m 414.2729,469.0019 -6.307,7.2555 -4.0242,-3.4983 6.6877,-7.6943 -3.5927,-3.1241 -10.5554,12.142 19.3766,16.843 10.9111,-12.5517 -3.5935,-3.1241 -7.0458,8.1041 -4.5993,-3.9984 6.3069,-7.2555 -3.5644,-3.0982 z" />
      <path
         id="path57"
         style="fill:#1b1918;fill-rule:evenodd"
         d="m 437.2913,462.5836 -6.7627,-3.7492 c -1.827,-1.0123 -3.558,-1.9496 -5.1954,-2.8054 -1.6342,-0.8623 -3.2241,-1.6616 -4.7647,-2.4045 l 0.0758,-0.1355 c 1.0857,0.121 2.2029,0.2162 3.3636,0.2823 1.1543,0.0653 2.3078,0.1057 3.4556,0.1291 1.1486,0.0233 2.2496,0.0274 3.3087,0.0161 l 11.3685,-0.0807 3.0071,-5.4253 -22.4547,-12.4469 -2.6311,4.7469 6.5287,3.6193 c 1.6947,0.9389 3.3313,1.8093 4.9099,2.603 1.5834,0.7969 3.1531,1.5261 4.7106,2.198 l -0.0371,0.0678 c -1.0437,-0.1202 -2.1197,-0.2218 -3.2192,-0.3065 -1.1091,-0.0831 -2.2117,-0.1476 -3.3192,-0.1928 -1.1051,-0.0363 -2.1803,-0.0484 -3.2241,-0.0371 l -10.8603,0.1863 -3.3458,6.0351 22.4546,12.4461 2.6312,-4.7461 z" />
    </g>
    <g
       id="Layer1003">
      <path
         id="path60"
         style="fill:#1b1918;fill-rule:evenodd"
         d="m 172.6835,367.3414 -14.0924,0 0,-6.5941 14.945,0 0,-5.8876 -23.5847,0 0,31.7469 24.3808,0 0,-5.8875 -15.7411,0 0,-7.537 14.0924,0 0,-5.8407 z" />
      <path
         id="path62"
         style="fill:#1b1918;fill-rule:evenodd"
         d="m 200.1327,386.6066 0,-9.5616 c 0,-2.5828 -0.0282,-5.0164 -0.0943,-7.3007 -0.0565,-2.2852 -0.1606,-4.4832 -0.3025,-6.5949 l 0.2266,0 c 0.6163,1.2486 1.289,2.5126 2.0271,3.808 0.7388,1.2874 1.5059,2.5586 2.2924,3.8153 0.7864,1.2559 1.5624,2.4489 2.3295,3.587 l 8.1839,12.2469 9.0922,0 0,-31.7469 -7.9556,0 0,9.2318 c 0,2.3948 0.0475,4.6864 0.1516,6.8692 0.1041,2.1899 0.2847,4.3258 0.5308,6.4142 l -0.1138,0 c -0.5872,-1.2011 -1.222,-2.4263 -1.8939,-3.6661 -0.6824,-1.2486 -1.3834,-2.4812 -2.1134,-3.7056 -0.738,-1.2172 -1.4866,-2.3868 -2.244,-3.5096 l -7.9565,-11.6339 -10.1157,0 0,31.7469 7.9556,0 z" />
      <path
         id="path64"
         style="fill:#1b1918;fill-rule:evenodd"
         d="m 250.7698,386.6066 8.6381,0 0,-25.7182 10.4569,0 0,-6.0287 -29.4383,0 0,6.0287 10.3433,0 0,25.7182 z" />
      <path
         id="path66"
         style="fill:#1b1918;fill-rule:evenodd"
         d="m 308.622,367.3414 -14.0932,0 0,-6.5941 14.945,0 0,-5.8876 -23.5839,0 0,31.7469 24.3801,0 0,-5.8875 -15.7412,0 0,-7.537 14.0932,0 0,-5.8407 z" />
      <path
         id="path68"
         style="fill:#1b1918;fill-rule:evenodd"
         d="m 334.9339,386.6066 0,-9.5616 c 0,-2.5828 -0.0282,-5.0164 -0.0944,-7.3007 -0.0564,-2.2852 -0.1605,-4.4832 -0.3024,-6.5949 l 0.2266,0 c 0.6163,1.2486 1.289,2.5126 2.027,3.808 0.7389,1.2874 1.506,2.5586 2.2925,3.8153 0.7864,1.2559 1.5624,2.4489 2.3295,3.587 l 8.1839,12.2469 9.0922,0 0,-31.7469 -7.9557,0 0,9.2318 c 0,2.3948 0.0476,4.6864 0.1517,6.8692 0.104,2.1899 0.2839,4.3258 0.5307,6.4142 l -0.1137,0 c -0.5872,-1.2011 -1.222,-2.4263 -1.8939,-3.6661 -0.6824,-1.2486 -1.3834,-2.4812 -2.1134,-3.7056 -0.738,-1.2172 -1.4866,-2.3868 -2.244,-3.5096 l -7.9565,-11.6339 -10.1158,0 0,31.7469 7.9557,0 z" />
      <path
         id="path70"
         style="fill:#1b1918;fill-rule:evenodd"
         d="m 385.5702,386.6066 8.6388,0 0,-25.7182 10.457,0 0,-6.0287 -29.4383,0 0,6.0287 10.3425,0 0,25.7182 z" />
      <path
         id="path72"
         style="fill:#1b1918;fill-rule:evenodd"
         d="m 443.4224,367.3414 -14.0924,0 0,-6.5941 14.945,0 0,-5.8876 -23.5847,0 0,31.7469 24.3808,0 0,-5.8875 -15.7411,0 0,-7.537 14.0924,0 0,-5.8407 z" />
      <path
         id="path74"
         style="fill:#1b1918;fill-rule:evenodd"
         d="m 114.4392,354.942 c 8.8535,0 16.0332,7.1797 16.0332,16.0332 0,8.8534 -7.1797,16.0331 -16.0332,16.0331 -8.8534,0 -16.0331,-7.1797 -16.0331,-16.0331 0,-8.8535 7.1797,-16.0332 16.0331,-16.0332 z" />
      <path
         id="path76"
         style="fill:#1b1918;fill-rule:evenodd"
         d="m 481.4504,354.942 c 8.8535,0 16.0332,7.1797 16.0332,16.0332 0,8.8534 -7.1797,16.0331 -16.0332,16.0331 -8.8534,0 -16.0331,-7.1797 -16.0331,-16.0331 0,-8.8535 7.1797,-16.0332 16.0331,-16.0332 z" />
    </g>
  </g>
</svg>
