<?xml version="1.0" encoding="UTF-8" standalone="no"?>
<!-- Created with Inkscape (http://www.inkscape.org/) -->

<svg
   xmlns:dc="http://purl.org/dc/elements/1.1/"
   xmlns:cc="http://creativecommons.org/ns#"
   xmlns:rdf="http://www.w3.org/1999/02/22-rdf-syntax-ns#"
   xmlns:svg="http://www.w3.org/2000/svg"
   xmlns="http://www.w3.org/2000/svg"
   xmlns:sodipodi="http://sodipodi.sourceforge.net/DTD/sodipodi-0.dtd"
   xmlns:inkscape="http://www.inkscape.org/namespaces/inkscape"
   width="744"
   height="744"
   id="svg4442"
   sodipodi:version="0.32"
   inkscape:version="0.48.2 r9819"
   version="1.0"
   sodipodi:docname="Paris Saint-Germain FC.svg"
   inkscape:output_extension="org.inkscape.output.svg.inkscape">
  <defs
     id="defs4444">
    <clipPath
       clipPathUnits="userSpaceOnUse"
       id="clipPath1915">
      <path
         d="m 758.2587,224.1105 c 0,-18.936 -15.368,-34.303 -34.304,-34.303 -18.935,0 -34.304,15.367 -34.304,34.303 0,18.936 15.369,34.304 34.304,34.304 18.936,0 34.304,-15.368 34.304,-34.304"
         clip-rule="evenodd"
         id="path1917"
         inkscape:connector-curvature="0" />
    </clipPath>
    <clipPath
       clipPathUnits="userSpaceOnUse"
       id="clipPath1909">
      <path
         d="m 692.9587,193.1075 62.0099,0 0,62.01 -62.0099,0 0,-62.01 z"
         id="path1911"
         inkscape:connector-curvature="0" />
    </clipPath>
    <inkscape:perspective
       sodipodi:type="inkscape:persp3d"
       inkscape:vp_x="0 : 526.18109 : 1"
       inkscape:vp_y="0 : 1000 : 0"
       inkscape:vp_z="744.09448 : 526.18109 : 1"
       inkscape:persp3d-origin="372.04724 : 350.78739 : 1"
       id="perspective4450" />
  </defs>
  <sodipodi:namedview
     id="base"
     pagecolor="#ffffff"
     bordercolor="#666666"
     borderopacity="1.0"
     inkscape:pageopacity="0.0"
     inkscape:pageshadow="2"
     inkscape:zoom="0.8125"
     inkscape:cx="39"
     inkscape:cy="182.85787"
     inkscape:document-units="px"
     inkscape:current-layer="layer1"
     showgrid="false"
     inkscape:window-width="1366"
     inkscape:window-height="706"
     inkscape:window-x="-8"
     inkscape:window-y="-8"
     inkscape:window-maximized="1" />
  <metadata
     id="metadata4447">
    <rdf:RDF>
      <cc:Work
         rdf:about="">
        <dc:format>image/svg+xml</dc:format>
        <dc:type
           rdf:resource="http://purl.org/dc/dcmitype/StillImage" />
      </cc:Work>
    </rdf:RDF>
  </metadata>
  <g
     inkscape:label="Calque 1"
     inkscape:groupmode="layer"
     id="layer1"
     transform="translate(-264.10105,272.35144)">
    <g
       transform="matrix(11.992202,0,0,-11.979011,-8044.7541,2784.085)"
       id="g1905">
      <g
         id="g1907"
         clip-path="url(#clipPath1909)">
        <g
           id="g1913"
           clip-path="url(#clipPath1915)">
          <path
             d="m 741.4587,210.3425 c 3,3.796 4.793,8.594 4.793,13.809 0,11.287 -8.392,20.613 -19.27,22.076 0,-19.038 7.219,-29.362 14.477,-35.885"
             style="fill:#1f53a9;fill-opacity:1;fill-rule:nonzero;stroke:none"
             id="path1919"
             inkscape:connector-curvature="0" />
          <path
             d="m 754.7437,224.1125 c 0,-17 -13.78,-30.78 -30.78,-30.78 -16.999,0 -30.78,13.78 -30.78,30.78 0,16.999 13.781,30.78 30.78,30.78 17,0 30.78,-13.781 30.78,-30.78"
             style="fill:#ffffff;fill-opacity:1;fill-rule:nonzero;stroke:none"
             id="path1921"
             inkscape:connector-curvature="0" />
          <path
             d="m 754.7437,224.1125 c 0,-17 -13.78,-30.78 -30.78,-30.78 -16.999,0 -30.78,13.78 -30.78,30.78 0,16.999 13.781,30.78 30.78,30.78 17,0 30.78,-13.781 30.78,-30.78 z"
             style="fill:none;stroke:#122657;stroke-width:0.04690548;stroke-linecap:butt;stroke-linejoin:miter;stroke-miterlimit:4;stroke-opacity:1;stroke-dasharray:none"
             id="path1923"
             inkscape:connector-curvature="0" />
          <path
             d="m 753.6267,224.0715 c 0,-16.403 -13.297,-29.7 -29.7,-29.7 -16.403,0 -29.7,13.297 -29.7,29.7 0,16.403 13.297,29.7 29.7,29.7 16.403,0 29.7,-13.297 29.7,-29.7"
             style="fill:#122657;fill-opacity:1;fill-rule:nonzero;stroke:none"
             id="path1925"
             inkscape:connector-curvature="0" />
          <path
             d="m 700.5767,223.9845 c 0,-12.898 10.457,-23.355 23.355,-23.355 12.899,0 23.355,10.457 23.355,23.355 0,12.899 -10.456,23.356 -23.355,23.356 -12.898,0 -23.355,-10.457 -23.355,-23.356"
             style="fill:#ffffff;fill-opacity:1;fill-rule:nonzero;stroke:none"
             id="path1927"
             inkscape:connector-curvature="0" />
          <path
             d="m 723.9657,217.1115 c 8.953,0 10.405,-7.135 10.138,-13.183 2.372,1.196 4.498,2.795 6.297,4.713 -3.703,3.839 -7.208,8.008 -9.822,13.69 l -13.2249,0 c -2.6141,-5.682 -6.1201,-9.851 -9.8221,-13.69 1.799,-1.918 3.925,-3.517 6.297,-4.713 -0.267,6.048 1.186,13.183 10.137,13.183"
             style="fill:#ed1c24;fill-opacity:1;fill-rule:nonzero;stroke:none"
             id="path1929"
             inkscape:connector-curvature="0" />
          <path
             d="m 730.3287,222.8825 c -2.589,5.854 -4.238,13.3 -4.238,23.565 -0.697,0.065 -1.411,0.098 -2.125,0.098 -0.713,0 -1.427,-0.033 -2.124,-0.098 0,-10.265 -1.649,-17.711 -4.239,-23.565"
             style="fill:#ed1c24;fill-opacity:1;fill-rule:nonzero;stroke:none"
             id="path1931"
             inkscape:connector-curvature="0" />
          <path
             d="m 706.2897,210.0825 c -3.034,3.836 -4.847,8.685 -4.847,13.955 0,11.404 8.485,20.828 19.485,22.307 0,-19.238 -7.299,-29.67 -14.638,-36.262"
             style="fill:#122657;fill-opacity:1;fill-rule:nonzero;stroke:none"
             id="path1933"
             inkscape:connector-curvature="0" />
          <path
             d="m 723.9657,201.5285 c 2.526,0 4.972,0.417 7.238,1.184 2.265,6.018 0.814,13.845 -7.238,13.845 -8.051,0 -9.502,-7.827 -7.237,-13.845 2.266,-0.767 4.712,-1.184 7.237,-1.184"
             style="fill:#122657;fill-opacity:1;fill-rule:nonzero;stroke:none"
             id="path1935"
             inkscape:connector-curvature="0" />
          <path
             d="m 741.6437,210.0825 c 3.033,3.836 4.846,8.685 4.846,13.955 0,11.404 -8.485,20.828 -19.485,22.307 0,-19.238 7.299,-29.67 14.639,-36.262"
             style="fill:#122657;fill-opacity:1;fill-rule:nonzero;stroke:none"
             id="path1937"
             inkscape:connector-curvature="0" />
          <path
             d="m 726.4987,211.8485 0,-4.318 -8.668,0 c 0,0 0.346,-0.115 0.6,-0.6 0.231,-0.44 0.369,-1.2 0.924,-1.708 0.553,-0.508 0.808,-0.6 1.869,-0.6 0.104,0 0.393,-0.3 0.393,-0.635 l 0.115,0 c 0,0.335 0.289,0.635 0.393,0.635 1.066,0 2.599,0 3.982,0 0.104,0 0.392,-0.3 0.392,-0.635 l 0.116,0 c 0,0.335 0.2881,0.635 0.3921,0.635 2.1469,0 2.69,1.385 2.69,2.931 0,2.402 -1.201,4.295 -3.198,4.295"
             style="fill:#ffffff;fill-opacity:1;fill-rule:nonzero;stroke:none"
             id="path1939"
             inkscape:connector-curvature="0" />
          <path
             d="m 723.8847,211.9635 c -0.162,0 -0.294,-0.023 -0.421,-0.554 -0.136,-0.568 -0.485,-0.739 -0.716,-0.739 -0.084,0 -0.143,0 -0.185,0 0,0.422 0,0.831 0,0.831 0.508,0.739 0.462,1.431 -0.161,2.124 -0.623,-0.693 -0.67,-1.385 -0.162,-2.124 0,0 0,-0.409 0,-0.831 -0.042,0 -0.101,0 -0.185,0 -0.23,0 -0.579,0.171 -0.715,0.739 -0.127,0.531 -0.26,0.554 -0.421,0.554 -0.141,0 -0.503,-0.104 -0.457,-0.404 0.047,-0.3 0.22,-0.537 0.358,-0.473 0.075,0.034 0.061,0.149 0.099,0.202 0.044,0.061 0.14,0.05 0.236,-0.052 0.116,-0.124 0.234,-0.533 0.531,-0.843 0.217,-0.226 0.407,-0.268 0.554,-0.275 0,-0.15 0,-0.268 0,-0.325 0,-0.254 -0.254,-0.324 -0.254,-0.324 l 0.416,-0.461 0.415,0.461 c 0,0 -0.254,0.07 -0.254,0.324 0,0.057 0,0.175 0,0.325 0.148,0.007 0.338,0.049 0.554,0.275 0.298,0.31 0.415,0.719 0.531,0.843 0.096,0.102 0.193,0.113 0.237,0.052 0.038,-0.053 0.024,-0.168 0.098,-0.202 0.138,-0.064 0.312,0.173 0.358,0.473 0.046,0.3 -0.316,0.404 -0.456,0.404"
             style="fill:#ffffff;fill-opacity:1;fill-rule:nonzero;stroke:none"
             id="path1941"
             inkscape:connector-curvature="0" />
          <path
             d="m 718.2707,199.2975 0.137,0.768 1.396,-0.251 -0.625,-3.488 -0.905,0.162 0.488,2.721"
             style="fill:#ffffff;fill-opacity:1;fill-rule:nonzero;stroke:none"
             id="path1943"
             inkscape:connector-curvature="0" />
          <path
             d="m 722.5667,198.3565 c 0.023,0.32 -0.217,0.598 -0.537,0.62 -0.324,0.023 -0.601,-0.218 -0.624,-0.539 -0.022,-0.32 0.218,-0.598 0.538,-0.62 0.324,-0.023 0.6,0.213 0.623,0.539 z m -1.628,-2.264 0.919,0.973 -0.038,0.002 -0.033,0.003 -0.121,0.014 c -0.099,0.011 -0.312,0.073 -0.44,0.134 -0.512,0.236 -0.796,0.701 -0.757,1.257 0.056,0.792 0.715,1.295 1.608,1.232 0.86,-0.061 1.438,-0.637 1.386,-1.381 -0.03,-0.41 -0.268,-0.91 -0.632,-1.325 l -0.858,-0.982 -1.034,0.073"
             style="fill:#ffffff;fill-opacity:1;fill-rule:nonzero;stroke:none"
             id="path1945"
             inkscape:connector-curvature="0" />
          <path
             d="m 724.1047,198.6885 -0.046,0.779 3.043,0.179 -1.809,-3.656 -1.01,-0.06 1.44,2.854"
             style="fill:#ffffff;fill-opacity:1;fill-rule:nonzero;stroke:none"
             id="path1947"
             inkscape:connector-curvature="0" />
          <path
             d="m 728.3857,198.0865 c 0.125,-0.673 0.417,-1.032 0.779,-0.965 0.361,0.067 0.497,0.496 0.369,1.179 -0.127,0.683 -0.402,1.03 -0.763,0.963 -0.371,-0.069 -0.512,-0.495 -0.385,-1.177 z m 2.048,0.376 c 0.207,-1.114 -0.246,-1.973 -1.122,-2.136 -0.884,-0.164 -1.616,0.473 -1.825,1.593 -0.207,1.115 0.244,1.987 1.114,2.149 0.894,0.166 1.622,-0.472 1.833,-1.606"
             style="fill:#ffffff;fill-opacity:1;fill-rule:nonzero;stroke:none"
             id="path1949"
             inkscape:connector-curvature="0" />
          <path
             d="m 700.7037,237.4065 c 0.175,0.302 0.135,0.506 -0.127,0.657 -0.257,0.15 -0.467,0.08 -0.635,-0.21 l -0.154,-0.266 0.764,-0.443 0.152,0.262 z m 1.508,-1.224 -0.462,-0.797 -3.066,1.777 0.735,1.267 c 0.208,0.36 0.396,0.524 0.7,0.615 0.304,0.092 0.615,0.043 0.934,-0.142 0.666,-0.386 0.819,-0.961 0.431,-1.631 l -0.29,-0.499 1.018,-0.59"
             style="fill:#ffffff;fill-opacity:1;fill-rule:nonzero;stroke:none"
             id="path1951"
             inkscape:connector-curvature="0" />
          <path
             d="m 702.2107,240.6055 0.661,-0.995 0.465,0.608 -1.126,0.387 z m 1.064,-1.626 0.34,-0.565 -0.592,-0.772 -1.984,3.236 0.61,0.795 3.626,-1.096 -0.598,-0.779 -0.629,0.19 -0.773,-1.009"
             style="fill:#ffffff;fill-opacity:1;fill-rule:nonzero;stroke:none"
             id="path1953"
             inkscape:connector-curvature="0" />
          <path
             d="m 704.9017,242.9345 c 0.252,0.249 0.287,0.516 0.094,0.711 -0.089,0.091 -0.246,0.142 -0.366,0.123 -0.104,-0.016 -0.225,-0.089 -0.346,-0.209 l -0.121,-0.119 0.618,-0.626 0.121,0.12 z m 2.692,-0.09 -0.813,-0.804 -1.582,0.351 0.956,-0.968 -0.655,-0.648 -2.49,2.521 1.018,1.007 c 0.286,0.282 0.537,0.397 0.838,0.389 0.277,-0.012 0.56,-0.137 0.766,-0.346 0.166,-0.168 0.285,-0.403 0.317,-0.61 0.032,-0.221 -0.019,-0.404 -0.164,-0.64 l 1.809,-0.252"
             style="fill:#ffffff;fill-opacity:1;fill-rule:nonzero;stroke:none"
             id="path1955"
             inkscape:connector-curvature="0" />
          <path
             d="m 708.5757,243.5875 -0.715,-0.581 -2.236,2.749 0.714,0.581"
             style="fill:#ffffff;fill-opacity:1;fill-rule:nonzero;stroke:none"
             id="path1957"
             inkscape:connector-curvature="0" />
          <path
             d="m 709.2467,247.2725 c -0.257,0.027 -0.46,-0.018 -0.632,-0.134 -0.188,-0.127 -0.256,-0.331 -0.158,-0.477 0.036,-0.054 0.094,-0.09 0.168,-0.097 0.082,-0.013 0.177,-0.001 0.267,0.026 0.054,0.013 0.16,0.05 0.315,0.098 0.326,0.099 0.514,0.117 0.731,0.064 0.229,-0.052 0.389,-0.172 0.542,-0.399 0.121,-0.181 0.227,-0.439 0.248,-0.607 0.049,-0.429 -0.213,-0.895 -0.687,-1.214 -0.232,-0.155 -0.457,-0.244 -0.762,-0.306 -0.199,-0.043 -0.282,-0.047 -0.488,-0.044 l -0.086,0.83 c 0.372,-0.045 0.651,0.005 0.875,0.156 0.227,0.152 0.292,0.361 0.174,0.537 -0.04,0.059 -0.103,0.102 -0.169,0.115 -0.131,0.026 -0.222,0.01 -0.517,-0.085 -0.291,-0.093 -0.408,-0.121 -0.558,-0.136 -0.31,-0.038 -0.572,0.105 -0.785,0.423 -0.398,0.592 -0.263,1.264 0.334,1.664 0.309,0.208 0.694,0.347 1.094,0.388"
             style="fill:#ffffff;fill-opacity:1;fill-rule:nonzero;stroke:none"
             id="path1959"
             inkscape:connector-curvature="0" />
          <path
             d="m 713.3917,249.4185 c -0.249,0.069 -0.457,0.059 -0.646,-0.026 -0.207,-0.093 -0.309,-0.283 -0.237,-0.443 0.027,-0.06 0.078,-0.105 0.149,-0.124 0.079,-0.027 0.174,-0.031 0.268,-0.02 0.055,0.004 0.166,0.023 0.328,0.043 0.338,0.043 0.525,0.029 0.731,-0.06 0.216,-0.09 0.354,-0.235 0.466,-0.485 0.089,-0.198 0.149,-0.471 0.142,-0.64 -0.025,-0.431 -0.361,-0.846 -0.883,-1.08 -0.254,-0.114 -0.491,-0.163 -0.803,-0.173 -0.203,-0.009 -0.285,10e-4 -0.489,0.039 l 0.057,0.833 c 0.359,-0.108 0.642,-0.105 0.888,0.005 0.25,0.112 0.349,0.307 0.262,0.501 -0.029,0.064 -0.084,0.118 -0.146,0.141 -0.125,0.048 -0.218,0.048 -0.524,0.003 -0.302,-0.042 -0.423,-0.049 -0.573,-0.039 -0.312,0.015 -0.546,0.201 -0.702,0.55 -0.292,0.651 -0.045,1.29 0.61,1.584 0.341,0.152 0.743,0.224 1.144,0.197"
             style="fill:#ffffff;fill-opacity:1;fill-rule:nonzero;stroke:none"
             id="path1961"
             inkscape:connector-curvature="0" />
          <path
             d="m 716.1357,250.1925 -0.051,-1.193 0.734,0.217 -0.683,0.976 z m -0.095,-1.941 -0.057,-0.657 -0.933,-0.277 0.297,3.785 0.961,0.285 2.289,-3.018 -0.942,-0.279 -0.397,0.523 -1.218,-0.362"
             style="fill:#ffffff;fill-opacity:1;fill-rule:nonzero;stroke:none"
             id="path1963"
             inkscape:connector-curvature="0" />
          <path
             d="m 719.8327,248.5395 -0.906,-0.167 -0.642,3.485 0.906,0.167"
             style="fill:#ffffff;fill-opacity:1;fill-rule:nonzero;stroke:none"
             id="path1965"
             inkscape:connector-curvature="0" />
          <path
             d="m 720.2377,252.2305 0.92,0.061 1.832,-2.051 -0.144,2.164 0.919,0.061 0.235,-3.536 -0.919,-0.061 -1.832,2.051 0.144,-2.164 -0.919,-0.061"
             style="fill:#ffffff;fill-opacity:1;fill-rule:nonzero;stroke:none"
             id="path1967"
             inkscape:connector-curvature="0" />
          <path
             d="m 725.9677,248.7885 -0.92,0.058 0.175,2.759 -0.745,0.047 0.05,0.778 2.428,-0.154 -0.05,-0.778 -0.763,0.048"
             style="fill:#ffffff;fill-opacity:1;fill-rule:nonzero;stroke:none"
             id="path1969"
             inkscape:connector-curvature="0" />
          <path
             d="m 728.0807,249.9775 -0.084,-0.622 -1.185,0.161 0.085,0.622"
             style="fill:#ffffff;fill-opacity:1;fill-rule:nonzero;stroke:none"
             id="path1971"
             inkscape:connector-curvature="0" />
          <path
             d="m 732.0957,249.6315 c -0.032,-0.129 -0.061,-0.229 -0.081,-0.292 -0.053,-0.177 -0.113,-0.322 -0.176,-0.443 -0.387,-0.747 -1.144,-1.078 -2.002,-0.869 -1.088,0.265 -1.655,1.191 -1.391,2.274 0.269,1.102 1.203,1.663 2.323,1.389 0.468,-0.114 0.8,-0.331 1.029,-0.664 0.125,-0.186 0.183,-0.327 0.277,-0.68 l -0.935,-0.147 c -0.042,0.21 -0.073,0.3 -0.14,0.404 -0.101,0.166 -0.254,0.276 -0.456,0.325 -0.523,0.128 -1.01,-0.235 -1.163,-0.864 -0.156,-0.638 0.116,-1.176 0.663,-1.309 0.192,-0.047 0.371,-0.033 0.515,0.039 0.056,0.03 0.115,0.074 0.162,0.126 0.066,0.071 0.103,0.126 0.168,0.271 l -0.734,0.178 0.169,0.694"
             style="fill:#ffffff;fill-opacity:1;fill-rule:nonzero;stroke:none"
             id="path1973"
             inkscape:connector-curvature="0" />
          <path
             d="m 733.9247,249.7635 -0.214,-0.55 0.964,-0.375 -0.282,-0.727 -0.965,0.375 -0.222,-0.573 1.017,-0.395 -0.282,-0.727 -1.876,0.729 1.283,3.304 1.876,-0.73 -0.282,-0.726"
             style="fill:#ffffff;fill-opacity:1;fill-rule:nonzero;stroke:none"
             id="path1975"
             inkscape:connector-curvature="0" />
          <path
             d="m 736.2727,247.8165 c 0.313,-0.165 0.578,-0.118 0.707,0.124 0.059,0.113 0.061,0.277 0.006,0.386 -0.046,0.094 -0.152,0.188 -0.302,0.267 l -0.15,0.08 -0.411,-0.777 0.15,-0.08 z m 0.723,-2.595 -1.011,0.535 -0.141,1.614 -0.636,-1.203 -0.815,0.431 1.657,3.132 1.266,-0.669 c 0.355,-0.188 0.54,-0.393 0.622,-0.682 0.073,-0.268 0.038,-0.576 -0.099,-0.835 -0.11,-0.209 -0.298,-0.393 -0.486,-0.486 -0.201,-0.097 -0.392,-0.103 -0.661,-0.035 l 0.304,-1.802"
             style="fill:#ffffff;fill-opacity:1;fill-rule:nonzero;stroke:none"
             id="path1977"
             inkscape:connector-curvature="0" />
          <path
             d="m 739.7177,247.6745 0.728,-0.549 -0.563,-1.942 1.744,1.052 0.729,-0.549 -1.702,-3.154 -0.736,0.554 1.016,1.79 -1.911,-1.116 -0.294,0.222 0.579,2.119 -1.47,-1.448 -0.732,0.551"
             style="fill:#ffffff;fill-opacity:1;fill-rule:nonzero;stroke:none"
             id="path1979"
             inkscape:connector-curvature="0" />
          <path
             d="m 743.7517,242.7895 -1.086,-0.497 0.527,-0.555 0.559,1.052 z m -1.772,-0.796 -0.611,-0.249 -0.671,0.706 3.507,1.453 0.69,-0.727 -1.649,-3.409 -0.677,0.713 0.286,0.591 -0.875,0.922"
             style="fill:#ffffff;fill-opacity:1;fill-rule:nonzero;stroke:none"
             id="path1981"
             inkscape:connector-curvature="0" />
          <path
             d="m 743.9587,238.7445 -0.56,0.731 2.812,2.157 0.56,-0.732"
             style="fill:#ffffff;fill-opacity:1;fill-rule:nonzero;stroke:none"
             id="path1983"
             inkscape:connector-curvature="0" />
          <path
             d="m 747.4317,240.0625 0.473,-0.791 -0.993,-2.565 1.861,1.113 0.473,-0.791 -3.042,-1.818 -0.473,0.791 0.994,2.564 -1.862,-1.112 -0.473,0.791"
             style="fill:#ffffff;fill-opacity:1;fill-rule:nonzero;stroke:none"
             id="path1985"
             inkscape:connector-curvature="0" />
        </g>
      </g>
    </g>
  </g>
</svg>
