<?xml version="1.0" encoding="UTF-8" standalone="no"?>
<svg
   xmlns:dc="http://purl.org/dc/elements/1.1/"
   xmlns:cc="http://creativecommons.org/ns#"
   xmlns:rdf="http://www.w3.org/1999/02/22-rdf-syntax-ns#"
   xmlns:svg="http://www.w3.org/2000/svg"
   xmlns="http://www.w3.org/2000/svg"
   viewBox="0 0 700 700"
   height="700"
   width="700"
   xml:space="preserve"
   version="1.1"
   id="svg2"><metadata
     id="metadata8"><rdf:RDF><cc:Work
         rdf:about=""><dc:format>image/svg+xml</dc:format><dc:type
           rdf:resource="http://purl.org/dc/dcmitype/StillImage" /><dc:title></dc:title></cc:Work></rdf:RDF></metadata><defs
     id="defs6" /><g
     transform="matrix(1.25,0,0,-1.25,0,700.00003)"
     id="g10"><g
       transform="translate(-38.597859,-522.82226)"
       id="g6884"><g
         id="g6873"
         transform="matrix(0.99838402,0,0,0.99843243,0.06237319,0.81956054)"><path
           d="m 319.04252,1083.7015 c -154.62973,0 -280.444661,-125.80884 -280.444661,-280.43107 0,-154.63931 125.814931,-280.44815 280.444661,-280.44815 154.64682,0 280.46175,125.80884 280.46175,280.44815 0,154.62223 -125.81493,280.43107 -280.46175,280.43107"
           style="fill:#000000;fill-opacity:1;fill-rule:nonzero;stroke:none"
           id="path6869" /><path
           id="path6871"
           style="fill:#ffffff;fill-opacity:1;fill-rule:nonzero;stroke:none"
           d="m 319.04259,1081.607 c -153.47487,0 -278.350156,-124.86921 -278.350156,-278.33664 0,-153.48437 124.875286,-278.3536 278.350156,-278.3536 153.49182,0 278.3671,124.86923 278.3671,278.3536 0,153.46743 -124.87528,278.33664 -278.3671,278.33664" /><circle
           transform="scale(1,-1)"
           r="263.91339"
           cy="-803.26868"
           cx="319.04767"
           id="path5895"
           style="opacity:1;fill:#009fe3;fill-opacity:1;fill-rule:nonzero;stroke:none;stroke-width:0.08744975;stroke-linecap:round;stroke-linejoin:round;stroke-miterlimit:4;stroke-dasharray:none;stroke-dashoffset:0;stroke-opacity:1" /></g><path
         style="opacity:1;fill:#dc2f34;fill-opacity:1;fill-rule:nonzero;stroke:none;stroke-width:0.1;stroke-linecap:round;stroke-linejoin:round;stroke-miterlimit:4;stroke-dasharray:none;stroke-dashoffset:0;stroke-opacity:1"
         d="M 113.5568,968.44979 A 263.78264,263.79543 0 0 1 58.36644,843.96087 L 413.44172,556.71653 a 263.78264,263.79543 0 0 1 109.9564,80.18505 L 113.5568,968.44979 Z"
         id="rect6049" /><g
         id="g6017"
         transform="matrix(0.99838402,0,0,0.99843243,0.06237319,0.81956054)"><path
           id="path198"
           style="fill:#ffffff;fill-opacity:1;fill-rule:nonzero;stroke:none"
           d="m 130.81786,671.23543 -4.05785,5.9931 10.83225,2.90317 -6.7744,-8.89627 z m 12.56405,15.67034 -30.06883,-7.55504 3.32778,-4.90653 5.26332,1.42612 5.78964,-8.5737 -3.29381,-4.31232 3.32777,-4.90653 18.14996,25.14386 -2.49583,3.68414 z" /><path
           id="path200"
           style="fill:#ffffff;fill-opacity:1;fill-rule:nonzero;stroke:none"
           d="m 157.14803,668.38319 -3.7013,4.32929 -22.12291,-18.94702 12.27541,-14.36307 3.87108,3.31063 -8.59109,10.03378 18.26881,15.63639 z" /><path
           id="path202"
           style="fill:#ffffff;fill-opacity:1;fill-rule:nonzero;stroke:none"
           d="m 170.36744,634.11556 c -0.0849,1.76567 -0.79798,3.39552 -2.47885,5.48377 l -2.17324,2.76735 c -0.78101,0.95075 -1.12058,1.85056 -1.18849,2.63153 -0.0509,0.83191 0.30561,1.51101 0.84892,2.07127 1.37525,1.46008 3.56547,1.69776 5.75569,-0.37351 1.40921,-1.30727 2.88634,-3.03899 2.98821,-5.55168 l 5.05957,0.13582 c -0.16978,3.46344 -1.61295,6.16288 -4.53324,8.91325 -4.58418,4.31232 -9.88145,4.29534 -13.42995,0.50933 -1.69784,-1.78265 -2.49583,-3.66716 -2.41094,-5.60261 0.0849,-1.81661 0.83195,-3.58228 2.46188,-5.61959 l 2.15626,-2.76736 c 0.93381,-1.15447 1.18849,-1.73171 1.23943,-2.51268 0.034,-0.86586 -0.32259,-1.66381 -1.00173,-2.37687 -1.59598,-1.69776 -3.80317,-1.42612 -6.26505,0.91679 -1.95252,1.81661 -3.34475,3.97276 -3.41266,6.57034 l -5.21239,-0.1528 c 0.10187,-4.07463 1.90159,-7.06269 5.11051,-10.08471 4.46534,-4.21044 10.05124,-5.0763 13.92233,-0.96772 1.79971,1.90149 2.71655,3.90485 2.56374,6.01008" /><path
           id="path204"
           style="fill:#ffffff;fill-opacity:1;fill-rule:nonzero;stroke:none"
           d="m 184.21506,617.10738 -5.80663,4.32929 9.30419,6.28172 -3.49756,-10.61101 z m 6.74044,18.91307 -25.92608,-16.97762 4.73699,-3.54833 4.49928,3.07295 8.30246,-6.19683 -1.71482,-5.16119 4.75396,-3.54833 8.91369,29.69386 -3.56548,2.66549 z" /><path
           id="path206"
           style="fill:#ffffff;fill-opacity:1;fill-rule:nonzero;stroke:none"
           d="m 217.85785,608.04303 c 2.15626,5.78937 0.13582,10.59403 -4.56721,13.34441 -2.88633,1.69776 -5.56892,1.98638 -8.28548,1.2903 -3.97295,-1.03564 -5.6708,-3.83695 -8.47224,-8.64161 -2.81842,-4.78769 -4.43137,-7.63993 -3.39569,-11.6127 0.73008,-2.71641 2.29209,-4.90653 5.19541,-6.60429 4.65209,-2.7334 9.86447,-2.17313 13.85441,2.54664 l -4.97469,2.92015 c -1.69784,-1.76567 -3.88806,-2.51268 -6.31598,-1.08656 -1.3413,0.78097 -2.15626,1.91847 -2.37698,3.14086 -0.30561,1.61287 0.10187,3.02201 2.92029,7.82668 2.80144,4.80467 3.83713,5.85728 5.38217,6.36661 1.18849,0.40746 2.56374,0.25466 3.90504,-0.52631 2.4449,-1.42612 2.81842,-3.68414 2.12231,-6.02705 l 5.00864,-2.93713 z" /><path
           id="path208"
           style="fill:#ffffff;fill-opacity:1;fill-rule:nonzero;stroke:none"
           d="m 213.88489,587.58499 17.53873,-7.77574 2.05439,4.63489 -12.34332,5.46679 2.86935,6.46847 10.50966,-4.65187 2.05439,4.63489 -10.50966,4.65187 2.78447,6.24777 12.32635,-5.4668 2.05439,4.63489 -17.53873,7.77575 -11.80002,-26.62091 z" /><path
           id="path210"
           style="fill:#ffffff;fill-opacity:1;fill-rule:nonzero;stroke:none"
           d="m 183.40689,991.95965 4.41439,3.05597 c 2.03742,1.40914 4.29555,1.03563 5.58591,-0.81493 1.27338,-1.85056 0.83194,-4.0916 -1.20547,-5.51772 l -4.41439,-3.05598 -4.38044,6.33266 z m 13.68462,-19.77893 -6.60461,9.5584 3.36173,2.32593 11.29066,-6.31567 5.41613,3.73507 -12.49614,6.63825 c 1.7318,2.44478 2.34303,5.94217 0.017,9.30374 -2.76748,4.00676 -7.96289,5.33096 -12.85268,1.9694 l -9.3721,-6.50243 16.57096,-23.95542 4.66907,3.24273 z" /><path
           id="path212"
           style="fill:#ffffff;fill-opacity:1;fill-rule:nonzero;stroke:none"
           d="m 221.1228,998.35512 -6.41785,-3.36157 -1.64691,11.08635 8.06476,-7.72478 z m -4.77094,-13.71792 -0.83195,5.3819 9.16836,4.80467 3.92202,-3.76903 5.24634,2.75037 -22.93787,20.86549 -3.95598,-2.0713 4.14274,-30.72945 5.24634,2.76735 z" /><path
           id="path214"
           style="fill:#ffffff;fill-opacity:1;fill-rule:nonzero;stroke:none"
           d="m 236.94331,997.93747 c 2.58073,-1.12053 5.26332,-1.27333 8.38735,-0.0849 5.0426,1.93545 7.878,6.33263 6.68951,12.41063 l -5.38217,-2.0543 c 0.30562,-2.4278 -0.47539,-4.6009 -3.10705,-5.6196 -1.46015,-0.5433 -2.85238,-0.4584 -3.939,0.1189 -1.44317,0.764 -2.29209,1.9694 -4.27857,7.1645 -1.98647,5.1952 -2.15626,6.6722 -1.59597,8.2002 0.42446,1.1715 1.40921,2.1562 2.86936,2.6995 2.63165,1.0186 4.63511,-0.1019 6.01037,-2.1053 l 5.4331,2.0713 c -3.17497,5.297 -8.18361,6.7231 -13.26017,4.7877 -3.14101,-1.2054 -5.02562,-3.1069 -6.19713,-5.6535 -1.68086,-3.7521 -0.56029,-6.8251 1.42619,-12.0202 1.98648,-5.1952 3.19195,-8.23416 6.94418,-9.91494" /><path
           id="path216"
           style="fill:#ffffff;fill-opacity:1;fill-rule:nonzero;stroke:none"
           d="m 264.92549,1004.4671 -7.94592,28.013 -5.46705,-1.5449 7.94591,-28.0131 5.46706,1.545 z" /><path
           id="path218"
           style="fill:#ffffff;fill-opacity:1;fill-rule:nonzero;stroke:none"
           d="m 276.38084,1007.248 -3.17497,17.5888 14.53355,-15.5345 4.99166,0.8998 -5.1954,28.6582 -5.58591,-1.0017 3.17497,-17.5548 -14.53355,15.5005 -4.99166,-0.8998 5.17842,-28.6752 5.60289,1.0187 z" /><path
           id="path220"
           style="fill:#ffffff;fill-opacity:1;fill-rule:nonzero;stroke:none"
           d="m 300.4359,1013.7148 c 2.10533,-1.8676 4.60116,-2.8353 7.91195,-2.6825 3.10706,0.1528 5.7557,1.0696 8.04779,3.7181 2.02043,2.309 2.54676,4.8047 2.34302,9.0151 l -0.22072,4.2444 -10.98505,-0.5433 0.2377,-4.7876 5.34821,0.2716 0.0509,-1.0696 c 0.0849,-1.511 -0.22072,-2.8353 -1.1036,-3.9388 -0.84892,-1.0696 -2.2072,-1.7487 -3.97295,-1.8336 -1.54504,-0.085 -2.80145,0.4245 -3.7013,1.3243 -1.12058,1.1714 -1.52806,2.5806 -1.79972,8.1492 -0.27165,5.5517 -0.017,6.9608 0.98475,8.2342 0.81497,0.9847 2.00346,1.6468 3.5485,1.7317 2.90331,0.1358 4.65209,-1.2394 5.45008,-3.9898 l 5.72173,0.2887 c -1.01871,4.8556 -4.63511,9.1 -11.40951,8.7604 -3.3108,-0.1528 -5.72174,-1.3752 -7.62332,-3.4464 -2.75051,-3.039 -2.63166,-6.3157 -2.36001,-11.8674 0.28864,-5.5517 0.49238,-8.8284 3.53152,-11.5787" /><path
           id="path222"
           style="fill:#ffffff;fill-opacity:1;fill-rule:nonzero;stroke:none"
           d="m 343.2029,1009.9084 c 5.36519,-0.6112 9.89843,2.0033 11.64721,7.9455 l -5.73871,0.6452 c -0.83195,-2.292 -2.52979,-3.8709 -5.33123,-3.5484 -1.54504,0.1698 -2.75051,0.8829 -3.44663,1.9015 -0.91683,1.3413 -1.13755,2.8183 -0.50935,8.336 0.6282,5.5347 1.15453,6.9099 2.34302,8.0135 0.93382,0.8489 2.25814,1.2733 3.7862,1.0865 2.81842,-0.3055 4.07482,-2.224 4.38044,-4.6518 l 5.77267,-0.6452 c -0.37353,6.1799 -4.15972,9.7282 -9.57585,10.3394 -3.32777,0.3735 -5.89152,-0.4414 -8.09871,-2.1731 -3.22591,-2.5467 -3.63339,-5.8064 -4.26159,-11.3241 -0.61123,-5.5347 -0.9508,-8.7774 1.61295,-12.0032 1.76576,-2.1731 4.0918,-3.5483 7.41958,-3.9218" /><path
           id="path224"
           style="fill:#ffffff;fill-opacity:1;fill-rule:nonzero;stroke:none"
           d="m 377.43993,1008.8031 -12.88664,2.9541 5.39915,23.4461 -5.53498,1.2734 -6.5367,-28.3866 18.42161,-4.2274 1.13756,4.9404 z" /><path
           id="path226"
           style="fill:#ffffff;fill-opacity:1;fill-rule:nonzero;stroke:none"
           d="m 388.24841,999.51978 c 5.63684,-1.98638 11.46045,0.27164 13.51484,6.09492 l 6.34993,18.0473 -5.33123,1.8845 -6.28202,-17.8775 c -1.12058,-3.1578 -3.66734,-4.3802 -6.57066,-3.3615 -2.88633,1.0186 -4.07482,3.5653 -2.97123,6.7231 l 6.29901,17.8605 -5.36519,1.9015 -6.34994,-18.0642 c -2.05439,-5.8234 1.06964,-11.2222 6.70649,-13.20862" /><path
           id="path228"
           style="fill:#ffffff;fill-opacity:1;fill-rule:nonzero;stroke:none"
           d="m 419.35122,999.71163 c 2.30906,-1.15448 2.68259,-3.14086 1.79971,-4.88956 -0.88288,-1.74869 -2.71655,-2.66548 -5.00864,-1.51101 l -5.29727,2.66549 3.20892,6.40055 5.29728,-2.66547 z m 0.017,13.22557 4.95771,-2.4957 c 2.15626,-1.0866 2.76749,-2.9032 1.86763,-4.6858 -0.89986,-1.7997 -2.71655,-2.3939 -4.87281,-1.3073 l -4.97469,2.4957 3.02216,5.9931 z m -4.99166,-24.41382 c 4.63512,-2.32594 9.28721,-1.37519 11.73211,3.49739 1.74878,3.46343 0.56028,6.11194 -0.64518,7.63992 1.62993,-0.034 4.46533,0.86591 5.90849,3.75201 2.24116,4.4652 0.7131,8.8114 -4.36346,11.3581 l -10.44174,5.2461 -13.09038,-26.00975 10.90016,-5.48377 z" /><path
           id="path230"
           style="fill:#ffffff;fill-opacity:1;fill-rule:nonzero;stroke:none"
           d="m 453.21472,993.04282 3.49756,-2.5806 c 1.54504,-1.1375 2.29209,-2.46176 2.36,-3.97276 0.10187,-1.64683 -0.89985,-3.1918 -3.61641,-6.89292 -2.71655,-3.68414 -3.90504,-5.09328 -5.51799,-5.48377 -1.46015,-0.39048 -2.95425,-0.0679 -4.49929,1.06959 l -3.48058,2.5806 11.25671,15.27986 z m -0.78101,-24.02333 c 2.93727,0.95074 4.73699,3.32761 7.60634,7.19851 2.85238,3.88787 4.60116,6.33265 4.63512,9.4056 0.034,3.5653 -1.37525,6.28172 -4.5672,8.64161 l -8.47224,6.23079 -17.26708,-23.4461 8.45526,-6.23079 c 3.19195,-2.35989 6.21411,-2.90317 9.6098,-1.79962" /><path
           id="path232"
           style="fill:#ffffff;fill-opacity:1;fill-rule:nonzero;stroke:none"
           d="m 469.10315,948.08778 3.48058,3.70112 -9.8475,9.23582 4.85584,5.1612 8.37037,-7.87761 3.48058,3.70112 -8.38735,7.87761 4.68605,4.97444 9.83052,-9.2528 3.48058,3.70112 -13.97326,13.14068 -19.94967,-21.22202 13.97326,-13.14068 z" /><path
           id="path234"
           style="fill:#ffffff;fill-opacity:1;fill-rule:nonzero;stroke:none"
           d="m 493.77452,937.21531 c 0.74705,-1.2903 0.89986,-1.88452 0.83195,-2.66549 -0.11885,-0.86585 -0.57727,-1.59589 -1.35828,-2.19011 -1.85065,-1.42612 -3.98993,-0.81492 -6.0613,1.86754 -1.62993,2.10522 -2.6826,4.44814 -2.34303,7.04571 l -5.16144,0.64515 c -0.54331,-4.04067 0.76403,-7.26642 3.4636,-10.76381 3.76921,-4.8556 9.1344,-6.58732 13.59973,-3.12388 2.07137,1.61287 3.29382,3.42948 3.48058,5.5347 0.18676,1.76567 -0.27165,3.48041 -1.59597,5.80635 l -1.71483,3.07295 c -0.6282,1.06959 -0.83194,2.00336 -0.74705,2.78433 0.0679,0.8319 0.52634,1.44309 1.13756,1.91847 1.57899,1.22239 3.78619,1.12052 5.63684,-1.27332 1.18849,-1.51101 2.36001,-3.44646 2.07137,-5.94217 l 5.02562,-0.66213 c 0.37353,3.44646 -0.6282,6.34963 -3.0731,9.50747 -3.8541,4.99142 -9.10044,5.78937 -13.20923,2.61455 -1.93554,-1.51101 -3.02216,-3.22574 -3.24288,-5.16119 -0.20374,-1.81661 0.27166,-3.68415 1.54504,-5.94217 l 1.71482,-3.07295 z" /><path
           id="path236"
           style="fill:#ffffff;fill-opacity:1;fill-rule:nonzero;stroke:none"
           d="m 495.33314,914.28364 2.97123,-4.8556 20.50996,12.56344 3.97296,-6.48545 4.3295,2.64851 -10.91714,17.8265 -4.31252,-2.64851 3.95597,-6.50243 -20.50996,-12.54646 z" /><path
           id="path238"
           style="fill:#ffffff;fill-opacity:1;fill-rule:nonzero;stroke:none"
           d="m 528.27981,904.48076 2.24116,-4.87258 c 1.05266,-2.25802 0.28863,-4.41418 -1.74878,-5.36492 -2.05439,-0.93377 -4.1767,-0.11885 -5.22936,2.13918 l -2.24116,4.87257 6.97814,3.22575 z m -21.85125,-10.08471 10.56059,4.87258 1.71482,-3.7181 -8.16663,-10.03377 2.76749,-5.97612 8.67598,11.17127 c 2.10533,-2.13918 5.45008,-3.34459 9.16836,-1.62985 4.41439,2.05429 6.62159,6.94385 4.14274,12.32575 l -4.78792,10.35635 -26.45242,-12.20691 2.37699,-5.1612 z" /><path
           id="path240"
           style="fill:#ffffff;fill-opacity:1;fill-rule:nonzero;stroke:none"
           d="m 537.1103,872.81241 -9.01555,-6.62128 -2.19022,6.89292 11.20577,-0.27164 z m -21.69845,0.45839 5.4331,-0.11884 3.15799,-9.84702 -4.38044,-3.20877 1.79972,-5.65355 24.49989,18.99796 -1.34129,4.2444 -30.98566,1.22239 1.81669,-5.63657 z" /><path
           id="path242"
           style="fill:#ffffff;fill-opacity:1;fill-rule:nonzero;stroke:none"
           d="m 541.7556,857.02152 c -2.41094,-0.47537 -4.15972,-1.51101 -5.22936,-3.14086 -0.98475,-1.52798 -1.40921,-3.39552 -1.29036,-5.9931 l 0.15281,-3.51436 c 0.0679,-1.49404 -0.0509,-2.10523 -0.4754,-2.76736 -0.4754,-0.71306 -1.22245,-1.15447 -2.19022,-1.34123 -2.29209,-0.44142 -3.92202,1.06959 -4.5672,4.41418 -0.50935,2.59758 -0.37353,5.17818 1.06964,7.31736 l -4.31252,2.92015 c -2.30907,-3.36157 -2.58073,-6.84198 -1.74878,-11.17128 1.17151,-6.02705 5.1954,-9.98284 10.73037,-8.91325 2.58073,0.49235 4.49929,1.57892 5.60289,3.37855 0.95079,1.47705 1.32432,3.20877 1.18849,5.89123 l -0.1528,3.51437 c -0.0679,1.23937 0.16978,2.15616 0.57726,2.81829 0.45842,0.71306 1.13756,1.05261 1.90159,1.20541 1.9695,0.3735 3.88806,-0.69609 4.46533,-3.66717 0.35655,-1.90149 0.54331,-4.14254 -0.83195,-6.24776 l 4.1767,-2.85224 c 1.90159,2.90317 2.30907,5.94216 1.54504,9.88097 -1.20547,6.17985 -5.51799,9.2528 -10.61153,8.2681" /><path
           id="path244"
           style="fill:#ffffff;fill-opacity:1;fill-rule:nonzero;stroke:none"
           d="m 538.66722,823.8863 0.42447,-5.92519 c 0.18676,-2.56362 -1.30734,-3.90485 -3.27684,-4.04067 -1.95253,-0.13582 -3.66735,0.96772 -3.85411,3.53134 l -0.44144,5.90821 7.14792,0.52631 z m 11.80002,0.84888 0.39051,-5.55168 c 0.18676,-2.39384 -1.06965,-3.83694 -3.0731,-3.98974 -1.98648,-0.1528 -3.44663,1.10355 -3.61641,3.51437 l -0.40748,5.55168 6.70648,0.47537 z m -23.53212,-8.21717 c 0.37353,-5.17817 3.58245,-8.69254 9.01555,-8.28507 3.87109,0.27164 5.55195,2.6485 6.23109,4.46511 0.79799,-1.40914 3.03914,-3.39552 6.26505,-3.15784 4.97468,0.35653 7.91195,3.90485 7.50447,9.57538 l -0.84892,11.66362 -29.05012,-2.10522 0.88288,-12.15598 z" /><path
           id="path246"
           style="fill:#ffffff;fill-opacity:1;fill-rule:nonzero;stroke:none"
           d="m 549.57248,787.96505 c -1.29036,-0.9847 -2.69957,-1.27332 -8.25153,-0.95074 -5.55195,0.32257 -6.87626,0.76399 -8.04778,1.90149 -0.88288,0.86586 -1.47712,2.17313 -1.37525,3.73508 0.0849,1.54496 0.81496,2.76735 1.79971,3.58227 1.29037,0.98471 2.64864,1.23937 8.21757,0.89982 5.55195,-0.32258 6.92721,-0.73004 8.08174,-1.85056 0.89986,-0.91679 1.42619,-2.22407 1.3413,-3.76903 -0.0849,-1.56195 -0.78101,-2.78433 -1.76576,-3.54833 m -7.33469,14.85542 c -5.55195,0.32258 -8.82879,0.47537 -11.88491,-2.25802 -2.08835,-1.85056 -3.32777,-4.27836 -3.53152,-7.62295 -0.18676,-3.3446 0.78101,-5.87426 2.61468,-7.94553 2.73353,-3.05597 5.9934,-3.34459 11.56232,-3.66717 5.55196,-0.30559 8.82879,-0.42444 11.88491,2.30896 2.07137,1.85056 3.32778,4.22743 3.51454,7.57202 0.20374,3.36157 -0.76403,5.90821 -2.5977,7.97948 -2.73353,3.07295 -6.01037,3.31064 -11.56232,3.63321" /><path
           id="path248"
           style="fill:#ffffff;fill-opacity:1;fill-rule:nonzero;stroke:none"
           d="m 523.94352,767.12333 c -1.03569,-5.87426 2.13928,-11.25617 8.21756,-12.32576 l 18.86305,-3.31063 0.98475,5.56866 -18.67628,3.27668 c -3.29382,0.57724 -4.92375,2.88619 -4.39742,5.92519 0.54331,3.02201 2.85238,4.60093 6.1462,4.02369 l 18.65931,-3.27668 0.98475,5.60262 -18.86305,3.31063 c -6.07829,1.06959 -10.88319,-2.90317 -11.91887,-8.7944" /><path
           id="path250"
           style="fill:#ffffff;fill-opacity:1;fill-rule:nonzero;stroke:none"
           d="m 533.37165,735.79962 1.57899,5.11026 7.35167,-2.25802 -1.579,-5.12724 c -0.74705,-2.37687 -2.7505,-3.46344 -4.88979,-2.80131 -2.15626,0.66213 -3.19195,2.68246 -2.46187,5.07631 m -14.04117,9.94888 11.08692,-3.42948 -1.20547,-3.90485 -12.76779,-2.00336 -1.95252,-6.28172 13.92232,2.49571 c 0.13583,-3.00504 1.8167,-6.12892 5.73872,-7.33433 4.63511,-1.4431 9.55886,0.73004 11.30764,6.38359 l 3.36173,10.91661 -27.82767,8.59067 -1.66388,-5.43284 z" /><path
           id="path252"
           style="fill:#ffffff;fill-opacity:1;fill-rule:nonzero;stroke:none"
           d="m 526.68384,721.47051 c -5.07656,2.29197 -8.06476,3.59925 -11.91887,2.15615 -2.61468,-1.01865 -4.63511,-2.8013 -5.99339,-5.82332 -1.27338,-2.83526 -1.68086,-5.61959 -0.35655,-8.86232 1.13756,-2.85224 3.10706,-4.44813 6.94419,-6.19683 l 3.87108,-1.74869 4.53325,10.03377 -4.36346,1.9694 -2.2072,-4.88955 -0.96777,0.44142 c -1.37526,0.62817 -2.42792,1.49403 -3.00519,2.8013 -0.56028,1.23937 -0.54331,2.75038 0.16979,4.36325 0.64518,1.40915 1.68086,2.29198 2.88633,2.68247 1.56202,0.47537 3.00519,0.18675 8.06476,-2.10523 5.07656,-2.29198 6.19714,-3.15784 6.89325,-4.63489 0.49238,-1.17145 0.54331,-2.54664 -0.0849,-3.95578 -1.20547,-2.64851 -3.2259,-3.5653 -6.04433,-3.02202 l -2.34302,-5.22911 c 4.78792,-1.30727 10.20404,-0.034 13.00549,6.16288 1.35827,3.02202 1.35827,5.70448 0.40748,8.33601 -1.46015,3.85392 -4.4144,5.22911 -9.49095,7.52109" /></g><g
         id="g6878"
         transform="matrix(0.99838402,0,0,0.99843243,0.06237319,0.81956054)"><path
           id="path256"
           style="fill:#000000;fill-opacity:1;fill-rule:nonzero;stroke:none"
           d="m 114.38952,967.40491 111.24275,-97.58736 c 0.034,-0.35653 0.0849,-0.71306 0.16979,-1.05261 1.66389,-7.06269 12.41124,-12.02015 17.57269,-14.38004 0.76403,-0.37351 1.39223,-0.66213 1.81669,-0.86586 5.84059,-3.02202 12.85268,-7.53806 14.4147,-10.3903 0.81496,-1.47706 1.03568,-2.85224 0.64518,-4.07463 -0.44144,-1.35821 -1.61295,-2.51269 -3.41267,-3.37855 -0.64518,-0.3056 -1.32432,-0.44142 -2.17324,-0.44142 -3.32777,0 -9.74562,2.10523 -25.22996,7.19851 -6.02735,1.96941 -13.44693,4.41418 -22.59831,7.35131 -8.99858,2.8862 -17.35197,4.34627 -24.83946,4.34627 -21.27399,0 -29.08408,-11.51082 -29.83113,-12.68228 -7.89497,-9.84702 -12.27541,-36.21326 -6.07828,-68.60656 0.30561,-1.54496 0.61122,-3.08993 0.95079,-4.65187 8.72692,-39.84647 30.7989,-75.77112 62.17506,-101.16964 31.05357,-25.16083 70.13795,-39.01457 110.03729,-39.01457 1.86763,0 3.71828,0.0509 5.58591,0.10187 25.46766,0.81492 50.71461,7.21549 73.38083,18.64143 l 10.52663,5.29701 -11.39253,-2.98806 c -4.14274,-1.08657 -19.15169,-4.63489 -38.88064,-4.63489 -22.86996,0 -56.21562,4.92351 -85.12991,28.33565 -31.6648,25.63621 -42.1405,60.4573 -45.57014,78.92895 -4.8049,25.94181 -1.62993,48.89555 4.21065,56.12802 5.58591,6.89291 14.83916,8.7944 24.6527,10.79776 10.30592,2.10523 20.98536,4.29534 27.77673,12.68228 l 0.017,0.017 c 6.79138,8.40392 6.72347,19.28658 6.63857,29.82968 -0.0849,9.99982 -0.1528,19.45635 5.45008,26.34927 6.16318,7.60597 30.00091,15.82314 57.79462,15.82314 21.93615,0 54.1103,-4.88956 82.90574,-28.19983 49.98454,-40.49162 49.56008,-104.03885 48.96583,-116.36461 l -0.57727,-11.79944 3.00519,11.42594 c 17.50477,66.48436 -5.70476,137.39988 -59.11894,180.65885 -42.73474,34.60039 -89.13683,39.77856 -112.99154,39.77856 -34.78883,0 -61.25822,-10.18657 -69.49277,-20.2543 -1.39223,-1.34123 -17.84434,-18.47165 3.20893,-55.19424 4.78792,-8.36997 8.70994,-15.11008 11.90189,-20.59385 10.50966,-18.08117 13.00549,-22.3765 12.29239,-25.38154 -0.40748,-1.71474 -1.57899,-4.60094 -4.75396,-4.60094 -0.61123,0 -1.27339,0.11884 -1.95252,0.32258 -3.12404,0.95074 -9.01556,6.85895 -13.1583,11.93526 -0.28863,0.37351 -0.69611,0.91679 -1.20547,1.5959 -3.42964,4.61791 -10.57757,14.21027 -17.91225,14.21027 -0.30562,0 -0.61123,-0.017 -0.89986,-0.0509 l -118.57745,88.52132 c -0.25467,0.18675 -1.41187,0.95814 -1.7005,0.94116 -0.37352,-0.45839 -0.74705,-0.93377 -1.12058,-1.39216 0.036,-0.34185 1.12264,-1.25807 1.25907,-1.46748" /><g
           id="g6854"><path
             d="m 228.03982,876.78347 0.16978,0.22071 c 1.03569,1.27332 2.17324,2.24105 3.37871,2.8862 l -91.92129,68.64051 86.25049,-75.66925 c 0.37353,1.32426 1.08662,2.63153 2.12231,3.92183"
             style="fill:#ffffff;fill-opacity:1;fill-rule:nonzero;stroke:none"
             id="path254" /><path
             d="m 235.42714,878.37937 c -1.95252,0 -3.68432,-0.96773 -5.2803,-2.93713 l -0.16978,-0.20373 c -1.64691,-2.03732 -2.2072,-3.95579 -1.76576,-5.90821 1.37525,-5.89124 11.76606,-10.66195 16.19743,-12.69926 0.81497,-0.37351 1.47713,-0.69609 1.93555,-0.91679 1.30734,-0.67911 12.85268,-6.72314 15.4334,-11.37501 1.15454,-2.07127 1.44317,-4.15952 0.83195,-6.04403 -0.64518,-2.02034 -2.27512,-3.70112 -4.70303,-4.8556 -0.98475,-0.4584 -2.02044,-0.67911 -3.22591,-0.67911 -3.73525,0 -9.81354,1.98638 -26.01097,7.31736 -6.02735,1.9694 -13.42995,4.3972 -22.59831,7.35131 -8.7439,2.8013 -16.84261,4.22742 -24.07543,4.22742 -20.5609,0 -27.67486,-11.45989 -27.74278,-11.57873 l -0.10187,-0.13582 c -7.94591,-9.79609 -12.10563,-37.4017 -4.68605,-71.22112 8.60807,-39.30319 30.37444,-74.73548 61.30916,-99.77747 30.61213,-24.80431 69.13622,-38.45431 108.47527,-38.45431 23.3114,0 46.62281,4.78769 67.99867,13.88769 -7.18189,-1.22239 -17.18219,-2.4278 -28.76149,-2.4278 -23.29442,-0.017 -57.21735,5.0084 -86.7089,28.87893 -23.92263,19.37147 -40.4087,47.92782 -46.43605,80.40601 -5.12749,27.63957 -1.40921,50.57633 4.72001,58.13137 6.12922,7.589 16.26535,9.66027 26.06191,11.66363 9.89843,2.03731 20.13643,4.12556 26.36752,11.8334 6.24807,7.70784 6.18016,18.14907 6.09526,28.25076 -0.0679,9.99982 -0.1528,20.35616 5.99339,27.92818 6.67253,8.23415 30.83286,16.75691 59.73017,16.75691 22.32665,0 55.11202,-4.99142 84.46775,-28.76008 41.93675,-33.95524 49.03374,-83.78456 49.89964,-107.31554 12.22448,62.34182 -10.95109,127.06051 -60.74886,167.38236 -42.1405,34.12501 -87.8974,39.2183 -111.42953,39.2183 -34.07573,0 -59.81505,-9.74516 -67.60816,-19.38844 l -0.11885,-0.11885 c -0.16978,-0.16977 -16.84261,-16.55318 3.59943,-52.22316 4.78793,-8.35299 8.70995,-15.0931 11.90189,-20.57687 11.44347,-19.69404 13.49787,-23.22539 12.54707,-27.21513 -0.98475,-4.12556 -3.59943,-6.48545 -7.1649,-6.48545 -0.8659,0 -1.76576,0.1528 -2.68259,0.42444 -5.11052,1.56194 -13.41297,11.59572 -14.34679,12.7502 -0.30561,0.3735 -0.74705,0.95074 -1.27338,1.6638 -2.93727,3.95579 -9.8475,13.22557 -15.92578,13.22557"
             style="fill:#ffffff;fill-opacity:1;fill-rule:nonzero;stroke:none"
             id="path258" /></g></g><g
         id="g6862"
         transform="matrix(0.99838402,0,0,0.99843243,0.06237319,0.81956054)"><path
           d="m 476.94687,758.97432 c 0,57.8798 -47.10278,104.9803 -105.00286,104.9803 -57.90008,0 -105.00287,-47.1005 -105.00287,-104.9803 0,-57.89728 47.10279,-104.99778 105.00287,-104.99778 57.90008,0 105.00286,47.1005 105.00286,104.99778"
           style="fill:#000000;fill-opacity:1;fill-rule:nonzero;stroke:none"
           id="path6047" /><path
           id="path260"
           style="fill:#ffffff;fill-opacity:1;fill-rule:nonzero;stroke:none"
           d="m 371.94401,860.99259 c -56.26656,0 -102.04045,-45.77167 -102.04045,-102.01852 0,-56.26383 45.77389,-102.0355 102.04045,-102.0355 56.26656,0 102.04044,45.77167 102.04044,102.0355 0,56.24685 -45.77388,102.01852 -102.04044,102.01852 z" /><g
           id="g6858"><path
             d="m 432.25313,709.90705 c 7.92894,0 15.5183,1.46007 23.92263,9.37165 8.40433,7.92854 10.35685,18.76027 10.35685,24.09124 0,5.33097 -2.27511,16.48527 -9.71167,22.63117 -7.43656,6.14589 -22.13989,9.37164 -25.21299,10.01679 -3.07309,0.66213 -8.72692,1.62985 -8.72692,9.13396 0,7.52109 5.56893,9.94889 8.72692,9.94889 3.15799,0 5.56893,-2.4278 7.52145,-4.36325 1.93555,-1.93545 0.96778,-8.98116 9.457,-8.98116 8.48922,0 8.48922,9.94888 1.93554,19.40542 -6.5367,9.45653 -15.2806,9.94888 -19.40636,9.94888 -4.10878,0 -24.97529,-2.4278 -24.97529,-25.95878 0,-23.514 24.24522,-25.44945 31.29127,-27.40188 7.02908,-1.93545 13.09038,-7.50411 13.09038,-15.75523 0,-8.25112 -7.99685,-15.75523 -18.18391,-15.75523 -10.18707,0 -13.82046,4.83862 -15.2806,8.48881 -1.46015,3.63321 -2.92029,10.89963 -4.12576,15.26288 -1.20547,4.36325 -8.25153,11.1543 -8.25153,11.1543 0,0 -27.6409,21.34086 -32.24206,25.95878 1.20547,0 26.18076,1.69776 26.18076,26.43415 0,24.71942 -29.08407,25.94181 -29.08407,25.94181 l -45.11173,0 c -3.88806,0 -6.34993,-3.63322 -6.34993,-7.2834 l 0,-76.38232 c 0,-4.83862 5.05957,-7.99646 8.69296,-7.99646 3.63339,0 7.84404,4.60094 7.84404,7.84367 l 0,67.8935 40.25589,0 c 2.90331,0 7.75915,-3.5653 7.75915,-9.54142 0,-5.9931 -5.65383,-9.864 -9.04951,-9.864 l -27.4881,0 c -3.39569,0 -6.63857,-4.36325 -6.63857,-8.08135 0,-3.7181 3.39568,-6.62127 3.39568,-6.62127 0,0 31.37617,-24.09124 37.99776,-28.77707 -2.10533,-0.16977 -33.95689,-7.92855 -33.95689,-39.93136 0,-32.00281 28.77846,-43.47968 36.53761,-43.47968 l 37.19977,0 c 0,0 6.94418,1.44309 6.94418,7.91157 0,6.46847 -6.94418,7.75877 -6.94418,7.75877 l -34.60207,0 c -3.07309,0 -22.47945,2.5806 -22.47945,26.19647 0,23.59889 24.5678,25.70411 26.02795,25.70411 1.46015,0 5.50101,0 9.21929,-1.1375 4.85584,-32.64796 25.53558,-33.78546 33.46451,-33.78546"
             style="fill:#004996;fill-opacity:1;fill-rule:nonzero;stroke:none"
             id="path262" /><path
             d="m 338.48289,729.38887 -29.33875,0 0,31.76513 -2.05439,2.05429 0,16.85877 -4.49929,6.2987 -3.15799,32.49517 -3.14101,-32.49517 -5.09353,-6.2987 0,-16.73993 -3.39569,-3.39552 0,-47.52036 c 0,0 13.26016,-21.81624 30.27256,-30.06737 l 31.56293,0 4.61814,3.63321 c 0,0 -15.77298,5.82333 -15.77298,43.41178"
             style="fill:#004996;fill-opacity:1;fill-rule:nonzero;stroke:none"
             id="path264" /></g></g></g></g></svg>