<?xml version="1.0"?>
<svg xmlns="http://www.w3.org/2000/svg" xmlns:xlink="http://www.w3.org/1999/xlink" xmlns:svgjs="http://svgjs.com/svgjs" version="1.1" width="512" height="512" x="0" y="0" viewBox="0 0 496 496" style="enable-background:new 0 0 512 512" xml:space="preserve" class=""><g>
<g xmlns="http://www.w3.org/2000/svg">
	<g>
		<g>
			<path d="M248,0C111.033,0,0,111.033,0,248c0.154,136.903,111.097,247.846,248,248c136.967,0,248-111.033,248-248S384.967,0,248,0     z M248,480C119.87,480,16,376.13,16,248C16.146,119.93,119.93,16.146,248,16c128.13,0,232,103.87,232,232S376.13,480,248,480z" fill="#ffffff" data-original="#000000" style=""/>
			<path d="M400,240H256V96c0-4.418-3.582-8-8-8s-8,3.582-8,8v144H96c-4.418,0-8,3.582-8,8s3.582,8,8,8h144v144c0,4.418,3.582,8,8,8     s8-3.582,8-8V256h144c4.418,0,8-3.582,8-8S404.418,240,400,240z" fill="#ffffff" data-original="#000000" style=""/>
		</g>
	</g>
</g>
<g xmlns="http://www.w3.org/2000/svg">
</g>
<g xmlns="http://www.w3.org/2000/svg">
</g>
<g xmlns="http://www.w3.org/2000/svg">
</g>
<g xmlns="http://www.w3.org/2000/svg">
</g>
<g xmlns="http://www.w3.org/2000/svg">
</g>
<g xmlns="http://www.w3.org/2000/svg">
</g>
<g xmlns="http://www.w3.org/2000/svg">
</g>
<g xmlns="http://www.w3.org/2000/svg">
</g>
<g xmlns="http://www.w3.org/2000/svg">
</g>
<g xmlns="http://www.w3.org/2000/svg">
</g>
<g xmlns="http://www.w3.org/2000/svg">
</g>
<g xmlns="http://www.w3.org/2000/svg">
</g>
<g xmlns="http://www.w3.org/2000/svg">
</g>
<g xmlns="http://www.w3.org/2000/svg">
</g>
<g xmlns="http://www.w3.org/2000/svg">
</g>
</g></svg>
