<?xml version="1.0" standalone="no"?>
<!DOCTYPE svg PUBLIC "-//W3C//DTD SVG 20010904//EN"
 "http://www.w3.org/TR/2001/REC-SVG-20010904/DTD/svg10.dtd">
<svg version="1.0" xmlns="http://www.w3.org/2000/svg"
 width="160.000000pt" height="112.000000pt" viewBox="0 0 160.000000 112.000000"
 preserveAspectRatio="xMidYMid meet">
<metadata>
Created by potrace 1.16, written by Peter Selinger 2001-2019
</metadata>
<g transform="translate(0.000000,112.000000) scale(0.100000,-0.100000)"
fill="#000000" stroke="none">
<path d="M1018 823 c-3 -178 3 -496 9 -503 10 -10 38 19 44 46 7 28 7 28 14 6
11 -34 38 -23 47 18 4 19 5 118 2 220 -7 266 -6 261 -18 257 -14 -5 -25 -66
-25 -146 -1 -96 -10 -69 -17 50 -3 57 -10 111 -15 121 -5 9 -9 30 -9 47 0 21
-5 31 -15 31 -13 0 -15 -24 -17 -147z"/>
<path d="M730 645 c0 -51 2 -55 23 -55 12 0 33 7 45 16 20 14 22 14 22 0 0
-12 10 -16 40 -16 29 0 40 4 40 15 0 10 -11 15 -32 16 l-33 1 29 7 c41 9 46
31 7 31 -17 0 -31 5 -31 10 0 6 14 10 30 10 17 0 30 5 30 10 0 6 -18 10 -40
10 -30 0 -40 -4 -40 -16 0 -14 -1 -14 -16 0 -8 9 -29 16 -45 16 -29 0 -29 -1
-29 -55z"/>
<path d="M34 586 c-32 -32 -34 -39 -34 -97 0 -79 23 -122 74 -139 29 -9 40 -8
65 5 18 9 31 11 31 5 0 -5 9 -10 20 -10 14 0 20 7 20 22 l0 21 23 -21 c30 -28
80 -29 107 -2 40 40 10 71 -32 33 -14 -13 -23 -15 -35 -7 -37 23 -25 34 36 34
l61 0 0 -40 c0 -33 4 -40 19 -40 16 0 19 9 23 71 2 47 9 73 18 79 27 17 40 -9
40 -81 0 -62 2 -69 20 -69 19 0 20 7 20 90 0 104 -4 108 -87 108 l-53 0 -1
-37 c0 -20 -3 -29 -6 -21 -12 33 -47 60 -78 60 -34 0 -58 -19 -74 -60 -7 -18
-10 -20 -10 -7 -1 14 -10 17 -51 17 -47 0 -50 -2 -50 -25 0 -21 5 -25 29 -25
24 0 28 -3 24 -20 -11 -43 -81 -46 -97 -5 -11 31 -6 100 10 123 21 30 65 26
79 -5 6 -14 18 -23 32 -23 33 0 30 35 -6 71 -42 42 -92 40 -137 -5z"/>
<path d="M520 450 l0 -100 25 0 c24 0 25 2 25 74 0 58 3 75 16 80 28 11 34 -4
34 -80 0 -72 1 -74 25 -74 19 0 25 5 25 22 l0 21 23 -21 c30 -28 80 -29 107
-2 40 40 10 71 -32 33 -14 -13 -23 -15 -35 -7 -35 22 -24 32 37 36 l61 3 11
-42 c9 -37 14 -43 37 -43 24 0 28 6 48 73 l21 72 1 -72 c1 -71 2 -73 26 -73
l25 0 0 100 0 100 -44 0 -45 0 -12 -55 c-7 -30 -15 -52 -20 -50 -4 3 -12 27
-19 55 -10 43 -15 50 -36 50 -13 0 -24 -5 -24 -12 0 -9 -3 -9 -12 0 -22 22
-75 14 -96 -13 l-20 -25 -16 25 c-18 27 -63 34 -84 13 -9 -9 -12 -9 -12 0 0 7
-9 12 -20 12 -19 0 -20 -7 -20 -100z"/>
<path d="M1160 450 c0 -93 1 -100 20 -100 17 0 20 7 21 48 1 27 4 36 6 22 12
-63 90 -93 133 -50 l20 20 0 -20 c0 -15 7 -20 25 -20 24 0 25 3 25 56 0 30 5
64 10 75 14 25 40 25 40 -1 0 -22 30 -44 73 -54 16 -4 27 -12 24 -19 -6 -18
-33 -20 -50 -2 -15 14 -57 21 -57 9 0 -11 23 -49 34 -56 6 -4 27 -8 47 -8 46
0 72 26 67 71 -3 30 -8 36 -48 50 -45 17 -55 31 -25 37 8 2 18 -4 21 -12 8
-21 54 -21 54 -1 0 42 -87 74 -118 43 -8 -8 -12 -9 -12 -1 0 7 -21 12 -55 12
-49 0 -55 -3 -55 -21 l0 -21 -23 21 c-46 43 -107 22 -127 -44 -7 -26 -8 -24
-9 19 -1 40 -4 47 -21 47 -19 0 -20 -7 -20 -100z"/>
<path d="M871 290 c-29 -11 -65 -27 -80 -37 -25 -17 -25 -18 -5 -21 12 -2 51
4 88 12 80 19 158 20 277 4 68 -9 97 -9 128 1 51 15 57 42 8 34 -18 -3 -81 2
-140 11 -140 21 -210 20 -276 -4z"/>
</g>
</svg>
