<?xml version="1.0" standalone="no"?>
<!DOCTYPE svg PUBLIC "-//W3C//DTD SVG 20010904//EN"
 "http://www.w3.org/TR/2001/REC-SVG-20010904/DTD/svg10.dtd">
<svg version="1.0" xmlns="http://www.w3.org/2000/svg"
 width="160.000000pt" height="112.000000pt" viewBox="0 0 160.000000 112.000000"
 preserveAspectRatio="xMidYMid meet">
<metadata>
Created by potrace 1.16, written by Peter Selinger 2001-2019
</metadata>
<g transform="translate(0.000000,112.000000) scale(0.100000,-0.100000)"
fill="#000000" stroke="none">
<path d="M830 1014 c-58 -35 -105 -67 -105 -71 0 -5 72 -128 160 -275 l160
-267 163 -1 c90 0 162 4 160 9 -1 4 -93 157 -203 340 -124 206 -206 331 -215
330 -8 0 -62 -29 -120 -65z"/>
<path d="M575 784 c-61 -36 -114 -69 -118 -73 -4 -5 33 -76 82 -158 63 -104
91 -161 91 -182 0 -30 2 -31 40 -31 38 0 40 2 40 30 l0 30 115 0 115 0 0 -45
c0 -44 -1 -45 -21 -34 -29 15 -101 6 -133 -17 -38 -28 -69 -97 -62 -137 9 -47
41 -94 77 -112 26 -14 48 -15 125 -10 l94 7 0 57 0 56 19 -41 c11 -24 33 -50
55 -63 34 -21 44 -22 131 -16 l95 7 0 135 0 134 -47 0 c-27 -1 -67 2 -89 5
-66 9 -135 -36 -153 -101 -7 -22 -9 -2 -10 78 l-1 107 -34 0 c-35 0 -36 2
-162 213 -70 116 -130 215 -133 219 -4 4 -56 -22 -116 -58z m345 -554 c42 -42
11 -113 -50 -113 -61 0 -92 71 -50 113 11 11 33 20 50 20 17 0 39 -9 50 -20z
m300 0 c42 -42 11 -113 -50 -113 -61 0 -92 71 -50 113 11 11 33 20 50 20 17 0
39 -9 50 -20z"/>
<path d="M301 545 c-57 -35 -108 -68 -113 -73 -6 -6 -4 -21 6 -41 l17 -31 159
0 160 0 0 -40 0 -39 -47 5 c-59 6 -108 -16 -141 -66 -32 -47 -27 -127 9 -166
45 -48 72 -56 170 -48 l89 7 0 178 0 179 -39 0 c-39 0 -39 0 -97 100 -33 55
-61 99 -64 99 -3 0 -52 -29 -109 -64z"/>
<path d="M94 312 c-53 -34 -74 -69 -74 -125 0 -58 24 -103 70 -130 27 -16 44
-18 126 -12 l94 7 0 134 0 134 -34 0 c-18 0 -60 3 -92 6 -48 4 -65 2 -90 -14z
m116 -82 c51 -51 -7 -136 -74 -110 -70 26 -50 130 25 130 16 0 38 -9 49 -20z"/>
<path d="M630 190 l0 -140 40 0 40 0 0 140 0 140 -40 0 -40 0 0 -140z"/>
<path d="M1369 301 c-30 -31 -37 -67 -19 -101 9 -18 64 -42 123 -55 37 -8 30
-29 -11 -33 -23 -2 -33 2 -42 17 -8 16 -21 21 -50 21 -34 0 -40 -3 -40 -21 0
-53 89 -99 164 -85 58 11 86 41 86 91 0 52 -18 68 -100 90 -61 16 -70 23 -50
35 23 15 38 12 60 -10 12 -12 33 -20 55 -20 29 0 35 4 35 21 0 11 -13 34 -29
50 -26 26 -36 29 -91 29 -55 0 -65 -3 -91 -29z"/>
</g>
</svg>
