<?xml version="1.0" standalone="no"?>
<!DOCTYPE svg PUBLIC "-//W3C//DTD SVG 20010904//EN"
 "http://www.w3.org/TR/2001/REC-SVG-20010904/DTD/svg10.dtd">
<svg version="1.0" xmlns="http://www.w3.org/2000/svg"
 width="160.000000pt" height="112.000000pt" viewBox="0 0 160.000000 112.000000"
 preserveAspectRatio="xMidYMid meet">

<g transform="translate(0.000000,112.000000) scale(0.100000,-0.100000)"
fill="#000000" stroke="none">
<path d="M360 655 c0 -43 4 -75 10 -75 6 0 10 14 10 31 0 28 2 30 32 27 25 -2
34 -9 38 -27 3 -14 11 -26 17 -28 8 -3 9 6 4 30 -5 18 -6 48 -3 66 6 40 -8 51
-65 51 l-43 0 0 -75z m93 43 c8 -25 -6 -38 -39 -38 -30 0 -34 3 -34 25 0 22 4
25 34 25 19 0 36 -6 39 -12z"/>
<path d="M536 715 c-3 -8 -2 -15 3 -15 5 0 14 7 21 15 10 12 10 15 -3 15 -8 0
-17 -7 -21 -15z"/>
<path d="M510 675 c-15 -18 -16 -73 -1 -88 5 -5 21 -9 36 -9 29 0 53 17 40 29
-4 5 -10 2 -12 -4 -6 -18 -38 -16 -53 2 -14 17 -5 22 47 27 31 3 32 4 20 28
-15 30 -58 38 -77 15z m60 -20 c0 -9 -9 -15 -25 -15 -24 0 -32 10 -18 23 12
13 43 7 43 -8z"/>
<path d="M625 674 c-19 -20 -19 -68 0 -84 8 -7 26 -10 40 -7 20 3 25 1 23 -12
-3 -12 -14 -15 -43 -14 -37 2 -39 1 -21 -12 50 -38 86 -4 86 82 l0 60 -35 1
c-19 1 -41 -5 -50 -14z m63 -32 c4 -26 -13 -52 -34 -52 -16 0 -29 43 -20 66 9
24 50 14 54 -14z"/>
<path d="M743 635 c0 -33 2 -45 4 -27 2 18 2 45 0 60 -2 15 -4 0 -4 -33z"/>
<path d="M798 679 c-28 -16 -24 -75 7 -95 23 -15 27 -15 50 0 62 41 6 132 -57
95z m57 -49 c0 -31 -3 -35 -25 -35 -19 0 -26 6 -28 23 -5 36 5 54 30 50 19 -2
23 -9 23 -38z"/>
<path d="M904 681 c-8 -9 -4 -101 5 -101 6 0 11 19 13 43 3 37 6 42 28 42 22
0 26 -5 31 -45 7 -44 7 -44 5 10 l-1 55 -38 0 c-21 0 -40 -1 -43 -4z"/>
<path d="M160 644 l-22 -35 -27 25 c-15 14 -30 26 -34 26 -11 0 -8 -48 3 -55
22 -13 8 -25 -30 -25 -48 0 -51 -14 -10 -35 17 -9 30 -19 30 -24 0 -5 -13 -21
-30 -34 -17 -14 -30 -29 -30 -32 0 -7 58 1 87 12 12 5 14 -2 8 -41 -5 -32 -4
-46 4 -46 6 0 15 8 18 18 4 9 13 27 21 40 l15 23 35 -33 35 -33 -6 30 c-3 17
-9 38 -12 48 -6 15 -1 17 39 17 25 0 46 5 46 10 0 6 -6 10 -14 10 -8 0 -24 9
-37 19 l-24 19 30 33 30 32 -30 -6 c-16 -3 -38 -9 -47 -12 -15 -6 -17 -1 -15
35 3 54 -6 58 -33 14z"/>
<path d="M352 538 c-16 -16 -15 -28 3 -28 8 0 15 4 15 9 0 5 11 4 25 -2 23
-11 25 -17 25 -79 0 -61 2 -68 20 -68 19 0 20 7 20 90 0 83 -1 90 -20 90 -11
0 -20 -5 -20 -12 0 -9 -3 -9 -12 0 -7 7 -19 12 -28 12 -9 0 -21 -5 -28 -12z"/>
<path d="M830 459 c0 -88 1 -90 22 -87 17 2 22 10 23 33 0 27 3 30 38 33 30 3
37 7 35 20 -2 12 -15 18 -41 20 -51 4 -43 26 11 30 34 3 42 7 42 23 0 17 -7
19 -65 19 l-65 0 0 -91z"/>
<path d="M700 486 c0 -19 -4 -22 -25 -18 -33 6 -55 -14 -55 -48 0 -35 19 -51
59 -48 l31 2 0 68 c0 37 -2 68 -5 68 -3 0 -5 -11 -5 -24z m-10 -41 c10 -12 10
-21 1 -41 -14 -31 -45 -29 -49 4 -7 48 21 69 48 37z"/>
<path d="M360 435 c0 -58 2 -65 20 -65 18 0 20 7 20 65 0 58 -2 65 -20 65 -18
0 -20 -7 -20 -65z"/>
<path d="M491 474 c-12 -15 -21 -31 -21 -36 0 -14 21 -52 34 -60 19 -13 74 -8
90 8 24 23 20 26 -29 18 -30 -4 -45 -3 -45 5 0 6 19 11 45 11 41 0 45 2 45 23
0 57 -82 78 -119 31z m74 -14 c4 -6 -5 -10 -19 -10 -14 0 -26 5 -26 10 0 6 9
10 19 10 11 0 23 -4 26 -10z"/>
<path d="M970 434 c0 -57 2 -64 19 -64 16 0 20 8 23 43 3 41 4 42 43 45 22 2
44 7 50 12 6 5 17 5 25 0 11 -7 9 -11 -10 -18 -14 -5 -34 -11 -45 -13 -15 -3
-20 -12 -20 -34 0 -30 0 -30 63 -32 l62 -2 0 53 c0 61 -11 76 -60 76 -20 0
-41 -5 -48 -12 -8 -8 -12 -9 -12 -1 0 7 -19 11 -45 11 l-45 0 0 -64z m170 -13
c0 -15 -29 -33 -41 -25 -9 5 -7 11 6 21 22 15 35 17 35 4z"/>
<path d="M1190 433 c0 -61 1 -64 23 -61 18 2 21 8 19 33 -3 34 19 72 36 61 7
-4 12 -27 12 -52 0 -37 3 -44 20 -44 18 0 20 7 20 54 0 31 -5 58 -12 64 -7 5
-37 10 -65 10 l-53 0 0 -65z"/>
<path d="M1346 478 c-21 -30 -20 -71 2 -91 26 -24 77 -21 101 4 l19 21 11 -21
c14 -26 81 -29 105 -5 24 23 20 26 -29 18 -30 -4 -45 -3 -45 5 0 6 19 11 45
11 36 0 45 3 45 18 0 61 -80 85 -119 36 -12 -15 -21 -33 -21 -40 0 -8 -7 -14
-15 -14 -8 0 -24 -6 -35 -12 -17 -11 -22 -10 -30 2 -5 8 -10 20 -10 25 0 6 5
17 10 25 8 12 13 13 30 3 41 -26 66 -10 34 21 -24 24 -80 20 -98 -6z m209 -18
c4 -6 -5 -10 -20 -10 -15 0 -24 4 -20 10 3 6 12 10 20 10 8 0 17 -4 20 -10z"/>
<path d="M730 445 c-6 -16 -6 -34 0 -51 8 -21 15 -25 42 -22 17 2 33 9 36 16
3 11 0 12 -18 2 -18 -10 -25 -9 -38 4 -15 15 -14 16 13 16 42 0 54 11 44 38
-12 33 -66 31 -79 -3z m60 0 c11 -13 8 -15 -20 -15 -28 0 -31 2 -20 15 7 8 16
15 20 15 4 0 13 -7 20 -15z"/>
</g>
</svg>
