<?xml version="1.0" standalone="no"?>
<!DOCTYPE svg PUBLIC "-//W3C//DTD SVG 20010904//EN"
 "http://www.w3.org/TR/2001/REC-SVG-20010904/DTD/svg10.dtd">
<svg version="1.0" xmlns="http://www.w3.org/2000/svg"
 width="160.000000pt" height="112.000000pt" viewBox="0 0 160.000000 112.000000"
 preserveAspectRatio="xMidYMid meet">

<g transform="translate(0.000000,112.000000) scale(0.100000,-0.100000)"
fill="#000000" stroke="none">
<path d="M615 640 c3 -5 10 -10 16 -10 5 0 9 5 9 10 0 6 -7 10 -16 10 -8 0
-12 -4 -9 -10z"/>
<path d="M10 550 c0 -56 3 -70 15 -70 9 0 15 9 15 25 0 20 5 25 24 25 23 0 56
23 56 38 0 4 -7 18 -16 30 -11 16 -25 22 -55 22 l-39 0 0 -70z m76 29 c7 -12
-12 -29 -33 -29 -7 0 -13 9 -13 20 0 22 34 28 46 9z"/>
<path d="M130 550 c0 -56 3 -70 15 -70 10 0 15 10 15 30 0 18 5 30 13 30 19 0
37 -21 37 -42 0 -10 7 -18 15 -18 12 0 14 7 9 27 -9 33 -9 43 0 64 11 26 -20
49 -65 49 l-39 0 0 -70z m78 28 c3 -13 -3 -18 -22 -18 -20 0 -26 5 -26 21 0
15 5 20 22 17 13 -2 24 -11 26 -20z"/>
<path d="M260 550 l0 -70 50 0 c58 0 68 17 13 22 -27 2 -39 8 -41 21 -3 14 4
17 32 17 45 0 48 18 4 22 -48 4 -44 32 5 36 55 5 45 22 -13 22 l-50 0 0 -70z"/>
<path d="M380 551 c0 -76 19 -102 21 -28 l1 42 15 -42 c18 -53 36 -55 50 -5
l10 37 2 -37 c1 -27 6 -38 16 -38 12 0 15 14 15 70 0 63 -2 70 -19 70 -15 0
-23 -12 -33 -47 l-14 -48 -15 45 c-9 26 -23 46 -32 48 -15 3 -17 -7 -17 -67z"/>
<path d="M530 550 c0 -56 3 -70 15 -70 12 0 15 14 15 70 0 56 -3 70 -15 70
-12 0 -15 -14 -15 -70z"/>
<path d="M580 550 l0 -70 50 0 c34 0 50 4 50 13 0 7 -13 12 -32 12 -23 0 -34
5 -36 18 -3 13 3 17 27 17 38 0 41 18 4 22 -40 4 -36 32 5 36 51 5 37 22 -18
22 l-50 0 0 -70z"/>
<path d="M700 550 c0 -56 3 -70 15 -70 10 0 15 10 15 30 0 18 5 30 13 30 19 0
37 -21 37 -42 0 -10 7 -18 15 -18 17 0 20 23 5 50 -7 13 -7 21 0 25 17 10 11
44 -9 55 -11 5 -36 10 -55 10 l-36 0 0 -70z m78 28 c3 -13 -3 -18 -22 -18 -20
0 -26 5 -26 21 0 15 5 20 22 17 13 -2 24 -11 26 -20z"/>
<path d="M830 550 l0 -70 50 0 c58 0 68 17 13 22 -49 4 -53 32 -5 36 17 2 32
7 32 12 0 5 -15 10 -32 12 -48 4 -44 32 5 36 55 5 45 22 -13 22 l-50 0 0 -70z"/>
<path d="M989 615 c-5 -45 1 -130 10 -133 6 -2 11 9 11 27 0 28 3 31 30 31 27
0 30 -3 30 -31 0 -18 5 -29 11 -27 15 5 15 131 1 136 -6 2 -12 -9 -14 -25 -2
-22 -8 -28 -28 -28 -20 0 -26 6 -28 28 -2 15 -8 27 -13 27 -5 0 -9 -2 -10 -5z"/>
<path d="M1120 550 l0 -70 50 0 c58 0 68 17 13 22 -27 2 -39 8 -41 21 -3 14 4
17 32 17 45 0 48 18 4 22 -48 4 -44 32 5 36 55 5 45 22 -13 22 l-50 0 0 -70z"/>
<path d="M1237 613 c-10 -10 -8 -78 3 -107 8 -21 16 -26 43 -26 46 0 57 15 57
83 0 76 -23 74 -30 -4 -4 -46 -8 -54 -25 -54 -17 0 -20 8 -23 58 -3 53 -9 66
-25 50z"/>
<path d="M1360 551 c0 -56 3 -71 15 -71 10 0 15 10 15 30 0 17 4 30 9 30 25 0
41 -14 41 -36 0 -15 6 -24 15 -24 17 0 20 27 6 49 -6 9 -5 21 2 33 20 30 -3
53 -57 56 l-46 3 0 -70z m78 27 c3 -13 -3 -18 -22 -18 -20 0 -26 5 -26 21 0
15 5 20 22 17 13 -2 24 -11 26 -20z"/>
<path d="M1490 550 l0 -70 50 0 c28 0 50 5 50 10 0 6 -16 10 -35 10 -28 0 -35
4 -35 20 0 16 7 20 30 20 17 0 30 5 30 10 0 6 -13 10 -30 10 -23 0 -30 4 -30
20 0 16 7 20 35 20 19 0 35 5 35 10 0 6 -22 10 -50 10 l-50 0 0 -70z"/>
</g>
</svg>
