<?xml version="1.0" standalone="no"?>
<!DOCTYPE svg PUBLIC "-//W3C//DTD SVG 20010904//EN"
 "http://www.w3.org/TR/2001/REC-SVG-20010904/DTD/svg10.dtd">
<svg version="1.0" xmlns="http://www.w3.org/2000/svg"
 width="160.000000pt" height="112.000000pt" viewBox="0 0 160.000000 112.000000"
 preserveAspectRatio="xMidYMid meet">

<g transform="translate(0.000000,112.000000) scale(0.100000,-0.100000)"
fill="#000000" stroke="none">
<path d="M16 704 c-32 -31 -15 -94 26 -94 11 0 18 -7 18 -20 0 -11 -7 -20 -15
-20 -8 0 -15 7 -15 15 0 8 -7 15 -15 15 -18 0 -20 -31 -3 -48 16 -16 53 -15
67 2 7 8 11 30 9 48 -2 28 -7 34 -30 36 -22 3 -28 9 -28 28 0 15 6 24 15 24 8
0 15 -7 15 -15 0 -8 7 -15 15 -15 8 0 15 6 15 14 0 18 -27 46 -45 46 -7 0 -21
-7 -29 -16z"/>
<path d="M127 702 c-19 -21 -23 -111 -7 -143 12 -21 50 -25 68 -7 17 17 15 48
-3 48 -8 0 -15 -7 -15 -15 0 -8 -7 -15 -15 -15 -8 0 -15 9 -15 20 0 16 7 20
30 20 29 0 30 2 30 43 0 64 -37 89 -73 49z m43 -37 c0 -26 -14 -33 -25 -15 -9
14 1 40 15 40 5 0 10 -11 10 -25z"/>
<path d="M230 705 c0 -8 7 -15 15 -15 8 0 15 7 15 15 0 8 -7 15 -15 15 -8 0
-15 -7 -15 -15z"/>
<path d="M290 630 c0 -73 3 -90 15 -90 12 0 15 15 15 76 0 56 3 75 13 72 8 -3
13 -30 15 -76 2 -55 6 -72 17 -72 12 0 15 15 15 71 0 89 -10 109 -55 109 l-35
0 0 -90z"/>
<path d="M417 702 c-19 -21 -23 -111 -7 -143 12 -21 50 -25 68 -7 17 17 15 48
-3 48 -8 0 -15 -7 -15 -15 0 -8 -7 -15 -15 -15 -8 0 -15 9 -15 20 0 16 7 20
30 20 29 0 30 2 30 43 0 64 -37 89 -73 49z m43 -37 c0 -26 -14 -33 -25 -15 -9
14 1 40 15 40 5 0 10 -11 10 -25z"/>
<path d="M592 708 c-7 -7 -12 -26 -12 -43 0 -35 15 -55 42 -55 11 0 18 -7 18
-20 0 -11 -7 -20 -15 -20 -8 0 -15 7 -15 15 0 8 -7 15 -15 15 -8 0 -15 -8 -15
-18 0 -45 63 -59 81 -18 17 37 4 76 -26 76 -20 0 -25 5 -25 25 0 16 6 25 15
25 8 0 15 -7 15 -15 0 -8 7 -15 15 -15 21 0 19 23 -3 43 -22 20 -43 22 -60 5z"/>
<path d="M700 705 c0 -9 9 -15 25 -15 16 0 25 -6 25 -15 0 -8 -8 -15 -19 -15
-29 0 -43 -25 -39 -72 3 -43 3 -43 46 -46 l42 -3 0 78 c0 48 -5 84 -12 91 -18
18 -68 15 -68 -3z m50 -105 c0 -20 -5 -30 -15 -30 -10 0 -15 10 -15 30 0 20 5
30 15 30 10 0 15 -10 15 -30z"/>
<path d="M810 706 c0 -9 7 -16 16 -16 17 0 14 22 -4 28 -7 2 -12 -3 -12 -12z"/>
<path d="M870 630 c0 -107 18 -122 22 -18 2 46 7 73 16 76 9 3 12 -16 12 -72
0 -61 3 -76 15 -76 12 0 15 16 15 84 0 90 -4 96 -56 96 -24 0 -24 -1 -24 -90z"/>
<path d="M970 705 c0 -8 7 -15 15 -15 12 0 15 -15 15 -75 0 -60 3 -75 15 -75
12 0 15 15 15 75 0 60 3 75 15 75 8 0 15 7 15 15 0 11 -12 15 -45 15 -33 0
-45 -4 -45 -15z"/>
<path d="M1117 713 c-4 -3 -7 -44 -7 -90 l0 -84 43 3 42 3 3 79 c2 57 -1 82
-10 87 -16 10 -62 12 -71 2z m53 -83 c0 -47 -3 -60 -15 -60 -12 0 -15 13 -15
60 0 47 3 60 15 60 12 0 15 -13 15 -60z"/>
<path d="M1242 708 c-16 -16 -16 -140 0 -156 18 -18 56 -14 68 7 14 27 13 41
-5 41 -8 0 -15 -7 -15 -15 0 -8 -7 -15 -15 -15 -8 0 -15 9 -15 19 0 14 8 21
28 23 23 3 27 8 30 39 5 55 -43 90 -76 57z m48 -43 c0 -16 -6 -25 -15 -25 -9
0 -15 9 -15 25 0 16 6 25 15 25 9 0 15 -9 15 -25z"/>
<path d="M1350 630 c0 -73 3 -90 15 -90 12 0 15 15 15 75 0 43 4 75 10 75 6 0
10 -32 10 -75 0 -60 3 -75 15 -75 12 0 15 16 15 84 0 90 -4 96 -56 96 -24 0
-24 -1 -24 -90z"/>
<path d="M1460 705 c0 -8 7 -15 15 -15 8 0 15 7 15 15 0 8 -7 15 -15 15 -8 0
-15 -7 -15 -15z"/>
<path d="M1532 708 c-7 -7 -12 -29 -12 -50 0 -32 4 -39 25 -44 16 -4 25 -13
25 -25 0 -23 -15 -25 -24 -4 -9 26 -27 16 -24 -12 3 -25 7 -28 38 -28 35 0 35
0 35 45 0 39 -3 45 -22 48 -17 3 -23 10 -23 28 0 13 5 24 10 24 6 0 10 -7 10
-15 0 -8 7 -15 15 -15 18 0 20 31 3 48 -7 7 -19 12 -28 12 -9 0 -21 -5 -28
-12z"/>
<path d="M232 603 c4 -81 28 -85 28 -4 0 48 -3 61 -15 61 -13 0 -15 -11 -13
-57z"/>
<path d="M812 603 c4 -81 28 -85 28 -4 0 48 -3 61 -15 61 -13 0 -15 -11 -13
-57z"/>
<path d="M1462 603 c4 -81 28 -85 28 -4 0 48 -3 61 -15 61 -13 0 -15 -11 -13
-57z"/>
<path d="M522 628 c6 -18 28 -21 28 -4 0 9 -7 16 -16 16 -9 0 -14 -5 -12 -12z"/>
<path d="M1053 628 c2 -7 10 -13 17 -13 7 0 15 6 18 13 2 7 -5 12 -18 12 -13
0 -20 -5 -17 -12z"/>
<path d="M333 440 c0 -25 2 -35 4 -22 2 12 2 32 0 45 -2 12 -4 2 -4 -23z"/>
<path d="M390 440 c0 -22 5 -40 10 -40 6 0 10 6 10 14 0 8 6 17 13 19 10 4 10
6 0 6 -7 1 -13 7 -13 15 0 8 6 17 13 19 6 3 2 6 -10 6 -20 1 -23 -4 -23 -39z"/>
<path d="M511 438 l2 -43 7 40 c5 31 8 36 14 22 5 -9 6 -26 3 -37 -3 -11 -1
-20 5 -20 5 0 8 17 6 37 -2 27 -8 39 -20 41 -15 3 -18 -4 -17 -40z"/>
<path d="M580 440 c0 -22 5 -40 10 -40 10 0 14 21 10 49 -1 8 4 18 12 22 9 6
7 9 -9 9 -20 0 -23 -5 -23 -40z"/>
<path d="M651 438 c0 -24 3 -36 6 -28 3 8 12 19 19 23 22 13 17 47 -6 47 -17
0 -20 -6 -19 -42z m24 23 c3 -5 1 -12 -5 -16 -5 -3 -10 1 -10 9 0 18 6 21 15
7z"/>
<path d="M726 463 c-2 -10 -7 -27 -10 -38 -5 -16 -1 -20 20 -20 20 0 24 4 20
20 -3 11 -6 28 -6 38 0 9 -4 17 -9 17 -5 0 -12 -8 -15 -17z"/>
<path d="M790 440 c0 -38 19 -59 21 -22 0 14 2 14 9 -3 7 -15 9 -10 9 23 1 36
-2 42 -19 42 -17 0 -20 -7 -20 -40z m27 8 c-3 -8 -6 -5 -6 6 -1 11 2 17 5 13
3 -3 4 -12 1 -19z"/>
<path d="M868 440 c2 -22 8 -40 12 -40 4 0 10 18 12 40 3 31 0 40 -12 40 -12
0 -15 -9 -12 -40z"/>
<path d="M930 440 c0 -23 5 -40 11 -40 6 0 9 7 5 15 -3 8 0 15 6 15 7 0 7 4
-1 13 -8 10 -7 17 1 25 9 9 8 12 -5 12 -13 0 -17 -9 -17 -40z"/>
<path d="M1001 438 c0 -33 2 -38 9 -23 7 17 9 17 9 3 1 -10 6 -18 11 -18 6 0
10 8 11 18 0 14 2 14 9 -3 7 -15 9 -10 9 23 1 46 -10 54 -27 20 l-11 -23 0 23
c-1 12 -5 22 -11 22 -5 0 -10 -19 -9 -42z"/>
<path d="M1090 440 c0 -22 5 -40 10 -40 10 0 14 21 10 49 -1 8 4 18 12 22 9 6
7 9 -9 9 -20 0 -23 -5 -23 -40z"/>
<path d="M1161 438 c0 -33 2 -38 9 -23 7 17 9 17 9 3 1 -10 6 -18 11 -18 6 0
10 19 9 43 -1 36 -2 38 -9 17 -8 -24 -8 -24 -9 -2 -2 41 -21 22 -20 -20z"/>
<path d="M1237 472 c6 -4 13 -23 15 -42 l3 -35 6 43 c4 37 2 42 -16 42 -12 0
-16 -3 -8 -8z"/>
</g>
</svg>
