<?xml version="1.0" standalone="no"?>
<!DOCTYPE svg PUBLIC "-//W3C//DTD SVG 20010904//EN"
 "http://www.w3.org/TR/2001/REC-SVG-20010904/DTD/svg10.dtd">
<svg version="1.0" xmlns="http://www.w3.org/2000/svg"
 width="590.000000pt" height="332.000000pt" viewBox="0 0 590.000000 332.000000"
 preserveAspectRatio="xMidYMid meet">

<g transform="translate(0.000000,332.000000) scale(0.100000,-0.100000)"
fill="#000000" stroke="none">
<path d="M1661 2075 c-46 -47 -85 -56 -258 -54 -124 1 -158 -2 -210 -19 -112
-36 -198 -104 -243 -192 -25 -49 -26 -65 -1 -24 10 17 38 46 62 65 l43 34 171
1 c183 1 237 11 321 60 44 26 123 104 143 142 16 30 12 28 -28 -13z"/>
<path d="M2430 2050 c-47 -11 -87 -58 -95 -112 -4 -24 -5 -125 -3 -224 3 -199
9 -218 71 -251 34 -18 175 -24 230 -10 25 7 28 11 25 45 l-3 37 -98 3 c-89 3
-98 5 -113 26 -10 17 -14 42 -12 83 l3 58 108 3 108 3 -3 42 -3 42 -109 3
-108 3 4 69 c2 38 7 73 12 77 4 4 53 10 109 13 l102 5 0 40 c0 40 0 40 -45 47
-60 9 -137 8 -180 -2z"/>
<path d="M4329 2051 c-92 -29 -99 -49 -99 -302 0 -220 6 -251 58 -281 35 -21
121 -30 197 -20 l60 7 3 43 3 42 -98 0 c-64 0 -103 4 -111 12 -7 7 -12 42 -12
85 l0 73 106 0 105 0 -3 43 -3 42 -102 3 -103 3 0 68 c0 44 5 72 13 79 7 6 56
13 108 14 l94 3 0 40 c0 40 0 40 -45 47 -60 9 -139 8 -171 -1z"/>
<path d="M4743 2051 c-80 -21 -119 -78 -110 -164 6 -65 27 -91 131 -160 100
-68 121 -93 111 -137 -10 -44 -35 -53 -136 -48 l-89 4 0 -43 c0 -38 3 -43 28
-50 15 -3 61 -7 102 -7 132 -1 200 54 200 161 0 96 -20 121 -168 214 -75 47
-93 76 -68 114 17 26 19 26 119 24 l102 -2 3 40 c2 29 -1 42 -12 46 -27 11
-181 16 -213 8z"/>
<path d="M1888 2043 c-17 -4 -18 -27 -18 -299 l0 -294 50 0 50 0 0 129 0 130
38 -6 c20 -3 38 -6 39 -7 1 -1 26 -55 55 -121 l54 -120 52 -3 c29 -2 52 1 52
7 0 5 -26 62 -57 127 -46 93 -55 118 -43 122 30 10 69 60 80 103 25 92 -10
182 -84 218 -35 17 -60 21 -147 20 -57 -1 -112 -3 -121 -6z m232 -109 c33 -32
36 -76 7 -109 -21 -25 -33 -29 -91 -33 l-66 -4 0 87 0 87 65 -4 c48 -3 71 -9
85 -24z"/>
<path d="M2882 2043 c-7 -3 -19 -18 -27 -33 -14 -27 -135 -517 -135 -546 0
-10 14 -14 50 -14 28 0 50 1 50 3 0 14 111 501 115 505 13 13 18 -7 111 -435
l16 -73 49 0 c40 0 49 3 49 18 0 9 -29 136 -64 281 -72 298 -73 302 -155 300
-25 0 -52 -3 -59 -6z"/>
<path d="M3220 1808 c0 -219 2 -247 20 -286 25 -55 64 -72 167 -72 113 0 123
4 123 51 l0 39 -85 0 c-130 0 -125 -12 -125 275 l0 235 -50 0 -50 0 0 -242z"/>
<path d="M3605 2037 c-3 -7 -4 -140 -3 -297 l3 -285 48 -3 47 -3 0 300 0 301
-45 0 c-28 0 -48 -5 -50 -13z"/>
<path d="M3780 2005 l0 -45 70 0 70 0 2 -252 3 -253 44 -3 c28 -2 47 1 52 10
5 7 9 122 9 256 l0 242 70 0 70 0 0 45 0 45 -195 0 -195 0 0 -45z"/>
<path d="M1308 1761 c-8 -10 -31 -30 -53 -43 -37 -21 -50 -23 -200 -23 -172
-1 -226 -10 -307 -51 -57 -29 -133 -102 -162 -154 l-18 -35 31 36 c50 60 89
69 269 68 169 -1 221 9 317 65 42 25 114 97 134 135 14 26 7 28 -11 2z"/>
</g>
</svg>
