<?xml version="1.0" standalone="no"?>
<!DOCTYPE svg PUBLIC "-//W3C//DTD SVG 20010904//EN"
 "http://www.w3.org/TR/2001/REC-SVG-20010904/DTD/svg10.dtd">
<svg version="1.0" xmlns="http://www.w3.org/2000/svg"
 width="160.000000pt" height="112.000000pt" viewBox="0 0 160.000000 112.000000"
 preserveAspectRatio="xMidYMid meet">

<g transform="translate(0.000000,112.000000) scale(0.100000,-0.100000)"
fill="#000000" stroke="none">
<path d="M750 1085 c-12 -23 -14 -23 -26 -7 -12 15 -15 15 -24 2 -8 -13 -10
-13 -10 0 0 10 -3 11 -11 3 -6 -6 -18 -9 -25 -6 -9 3 -14 -2 -14 -17 0 -22 -1
-22 -19 -6 -16 14 -19 15 -24 2 -6 -16 2 -56 12 -56 9 0 8 -46 -1 -56 -5 -4
-8 -17 -8 -29 0 -19 -4 -21 -27 -17 -18 4 -22 7 -11 10 13 3 12 7 -8 27 -13
13 -30 22 -38 19 -21 -8 -30 28 -10 43 9 7 21 10 25 7 5 -3 9 0 9 6 0 6 -12
10 -27 8 -21 -2 -29 -9 -31 -27 -2 -13 1 -28 7 -34 12 -12 15 -31 3 -23 -10 6
-35 -14 -55 -44 -13 -20 -17 -61 -20 -203 -4 -168 -4 -177 14 -177 11 0 19 4
19 8 0 4 13 13 29 19 24 9 28 15 24 37 -3 14 -8 24 -12 22 -3 -2 -6 21 -6 53
0 41 -6 65 -22 90 -24 35 -23 41 14 98 12 19 18 20 39 11 13 -6 24 -15 24 -21
0 -5 6 -7 13 -4 8 3 20 2 27 -3 10 -6 8 -11 -9 -21 -11 -8 -21 -21 -21 -30 0
-20 -23 -31 -46 -22 -12 4 -15 2 -12 -8 3 -8 18 -14 36 -14 32 0 32 0 33 -55
1 -30 2 -70 3 -87 0 -18 -2 -33 -6 -33 -5 0 -8 -6 -8 -14 0 -20 50 -28 50 -7
1 13 3 12 16 -4 15 -19 16 -18 9 15 -4 19 -12 38 -18 42 -6 4 -8 10 -5 14 8 7
118 -103 118 -117 0 -5 6 -6 14 -3 8 3 23 1 33 -5 16 -9 16 -10 1 -11 -9 0
-18 -5 -20 -11 -3 -8 -10 -6 -20 5 -9 9 -23 16 -30 16 -10 0 -9 3 2 10 12 8
10 10 -8 10 -35 0 -112 -21 -112 -31 0 -5 -10 -8 -22 -6 -14 1 -22 -3 -21 -10
2 -8 -4 -10 -14 -6 -10 4 -14 2 -10 -4 7 -12 -14 -23 -43 -23 -10 0 -22 -4
-25 -10 -3 -6 1 -7 9 -4 15 6 20 -5 17 -33 -1 -9 12 -13 38 -13 22 0 46 -6 53
-14 12 -11 16 -9 25 11 10 22 9 25 -15 35 -16 6 -22 12 -14 15 6 3 10 9 7 13
-3 5 4 14 15 20 18 10 31 -2 13 -13 -5 -2 -2 -2 5 0 8 1 20 3 28 3 9 0 13 3
11 8 -3 4 14 7 38 7 37 0 42 -2 41 -20 -3 -19 3 -20 80 -20 45 0 80 3 77 8 -2
4 0 7 6 7 6 0 8 7 5 15 -5 13 1 14 32 10 22 -4 54 -11 73 -17 26 -8 35 -7 43
3 7 11 8 10 4 -4 -3 -10 -6 -21 -6 -23 0 -2 -6 -4 -14 -4 -8 0 -18 -5 -21 -10
-9 -14 22 -60 38 -59 9 0 9 2 -1 6 -25 10 9 33 50 33 21 0 37 4 34 9 -3 5 1
14 9 21 14 11 13 15 -6 33 -12 11 -34 20 -49 21 -16 1 -26 5 -22 10 3 5 -5 7
-16 4 -12 -4 -20 -2 -17 2 7 11 -51 23 -66 14 -8 -4 -9 -3 -5 4 5 8 0 12 -13
12 -12 0 -21 -4 -21 -10 0 -5 -7 -10 -15 -10 -8 0 -15 4 -15 10 0 9 88 100 97
100 2 0 2 -15 -2 -32 -6 -30 -6 -31 7 -14 14 18 15 18 21 -4 5 -19 8 -20 20
-9 8 8 12 18 9 23 -3 5 -5 45 -6 90 l-1 81 50 0 c39 0 49 -3 46 -15 -11 -42
-12 -64 -3 -52 7 11 10 11 15 -3 4 -9 3 -13 -3 -10 -6 3 -10 1 -10 -5 0 -6 -5
-8 -11 -4 -9 5 -10 -1 -5 -20 4 -16 2 -26 -5 -26 -19 0 -5 -45 16 -49 11 -2
25 -10 31 -19 7 -9 18 -13 28 -9 16 6 17 18 11 104 -3 54 -7 136 -9 183 -3 88
-16 130 -41 130 -8 0 -15 4 -15 10 0 5 -8 7 -17 3 -17 -6 -17 -5 0 14 25 29
19 67 -12 71 -13 2 -28 -2 -35 -8 -6 -6 -7 -11 -1 -10 32 7 46 -1 43 -22 -2
-17 -9 -22 -25 -20 -17 2 -23 -2 -23 -16 0 -11 -11 -27 -24 -35 -23 -16 -24
-15 -29 19 -3 19 1 56 8 82 18 56 17 55 6 48 -5 -4 -11 -1 -13 6 -3 7 -12 3
-24 -10 l-21 -22 5 31 c4 25 2 30 -9 23 -22 -14 -60 -12 -55 3 8 21 -21 3 -32
-20 l-11 -22 0 22 c-1 25 -16 39 -26 23 -10 -17 -25 -11 -18 8 4 12 0 11 -17
-7 -19 -19 -20 -25 -9 -33 12 -8 11 -9 -1 -5 -10 3 -14 14 -12 31 3 33 -1 33
-18 1z m-45 -43 c-3 -3 -11 0 -18 7 -9 10 -8 11 6 5 10 -3 15 -9 12 -12z m205
-12 c6 -11 8 -20 6 -20 -3 0 -10 9 -16 20 -6 11 -8 20 -6 20 3 0 10 -9 16 -20z
m220 -126 c0 4 6 1 14 -6 14 -14 10 -35 -11 -56 -16 -16 -17 -8 -3 18 8 15 6
21 -10 30 -14 8 -20 8 -20 0 0 -6 -4 -8 -10 -5 -6 4 -5 11 3 20 8 9 16 10 25
3 6 -6 12 -7 12 -4z m-260 -14 c0 -5 -2 -10 -4 -10 -3 0 -8 5 -11 10 -3 6 -1
10 4 10 6 0 11 -4 11 -10z m-313 -6 c-3 -3 -12 -4 -19 -1 -8 3 -5 6 6 6 11 1
17 -2 13 -5z m40 -19 c0 -8 -4 -12 -9 -9 -4 3 -8 0 -8 -7 0 -7 -3 -9 -6 -6 -4
4 -1 13 6 22 15 19 17 19 17 0z m-37 -5 c0 -5 -5 -10 -11 -10 -5 0 -7 5 -4 10
3 6 8 10 11 10 2 0 4 -4 4 -10z m300 0 c0 -5 -2 -10 -4 -10 -3 0 -8 5 -11 10
-3 6 -1 10 4 10 6 0 11 -4 11 -10z m248 -8 c2 -7 -1 -12 -8 -12 -6 0 -9 4 -6
9 4 5 1 12 -4 14 -6 3 -5 4 2 3 6 -1 14 -8 16 -14z m-15 -36 c57 -69 50 -78
-56 -67 -4 1 -5 13 -3 27 4 20 0 27 -14 31 -26 7 -26 33 0 33 11 0 20 5 20 10
0 20 16 9 53 -34z m-223 14 c0 -5 -5 -10 -11 -10 -5 0 -7 5 -4 10 3 6 8 10 11
10 2 0 4 -4 4 -10z m65 0 c3 -5 1 -10 -4 -10 -6 0 -11 5 -11 10 0 6 2 10 4 10
3 0 8 -4 11 -10z m-38 -22 c-3 -8 -6 -5 -6 6 -1 11 2 17 5 13 3 -3 4 -12 1
-19z m-300 -65 c-3 -10 -5 -4 -5 12 0 17 2 24 5 18 2 -7 2 -21 0 -30z m53 33
c0 -3 -4 -8 -10 -11 -5 -3 -10 -1 -10 4 0 6 5 11 10 11 6 0 10 -2 10 -4z m320
-6 c0 -5 -2 -10 -4 -10 -3 0 -8 5 -11 10 -3 6 -1 10 4 10 6 0 11 -4 11 -10z
m-310 -24 c0 -3 -4 -8 -10 -11 -5 -3 -10 -1 -10 4 0 6 5 11 10 11 6 0 10 -2
10 -4z m-15 -36 c3 -5 1 -10 -4 -10 -6 0 -11 5 -11 10 0 6 2 10 4 10 3 0 8 -4
11 -10z m135 6 c0 -3 -4 -8 -10 -11 -5 -3 -10 -1 -10 4 0 6 5 11 10 11 6 0 10
-2 10 -4z m17 -28 c-3 -8 -6 -5 -6 6 -1 11 2 17 5 13 3 -3 4 -12 1 -19z m-208
-18 c5 -17 6 -28 1 -25 -4 3 -10 0 -12 -6 -2 -7 -4 4 -4 25 0 20 1 36 2 36 1
0 7 -14 13 -30z m-116 -56 c-5 -15 -7 -15 -15 0 -5 9 -6 26 -2 39 l7 22 8 -23
c5 -12 6 -29 2 -38z m272 46 c-3 -5 -12 -10 -18 -10 -7 0 -6 4 3 10 19 12 23
12 15 0z m188 -5 c-3 -9 -8 -14 -10 -11 -3 3 -2 9 2 15 9 16 15 13 8 -4z m-63
-5 c0 -5 -2 -10 -4 -10 -3 0 -8 5 -11 10 -3 6 -1 10 4 10 6 0 11 -4 11 -10z
m80 -24 c0 -3 -4 -8 -10 -11 -5 -3 -10 -1 -10 4 0 6 5 11 10 11 6 0 10 -2 10
-4z m65 -55 c-10 -25 -28 14 -19 42 l7 22 9 -25 c5 -13 6 -31 3 -39z m-335 25
c0 -3 -4 -8 -10 -11 -5 -3 -10 -1 -10 4 0 6 5 11 10 11 6 0 10 -2 10 -4z m190
-6 c0 -5 -5 -10 -11 -10 -5 0 -7 5 -4 10 3 6 8 10 11 10 2 0 4 -4 4 -10z m65
0 c3 -5 1 -10 -4 -10 -6 0 -11 5 -11 10 0 6 2 10 4 10 3 0 8 -4 11 -10z m-335
-36 c0 -3 -7 -1 -15 6 -8 7 -15 17 -15 22 0 5 7 3 15 -6 8 -8 15 -18 15 -22z
m297 14 c-3 -8 -6 -5 -6 6 -1 11 2 17 5 13 3 -3 4 -12 1 -19z m-47 -68 c0 -5
-4 -10 -10 -10 -5 0 -10 5 -10 10 0 6 5 10 10 10 6 0 10 -4 10 -10z m25 -31
c11 -16 -2 -22 -32 -15 -21 6 -24 9 -12 17 19 12 36 11 44 -2z"/>
<path d="M545 490 c-3 -5 -1 -10 4 -10 6 0 11 5 11 10 0 6 -2 10 -4 10 -3 0
-8 -4 -11 -10z"/>
<path d="M1035 490 c3 -5 8 -10 11 -10 2 0 4 5 4 10 0 6 -5 10 -11 10 -5 0 -7
-4 -4 -10z"/>
<path d="M475 481 c-6 -11 9 -23 19 -14 9 9 7 23 -3 23 -6 0 -12 -4 -16 -9z"/>
<path d="M1100 481 c0 -5 5 -13 10 -16 6 -3 10 -2 10 4 0 5 -4 13 -10 16 -5 3
-10 2 -10 -4z"/>
<path d="M773 345 c-12 -13 4 -48 24 -52 16 -3 36 24 30 40 -7 19 -40 27 -54
12z"/>
<path d="M620 163 c0 -6 8 -17 18 -24 16 -13 16 -13 2 6 -8 11 -16 22 -17 24
-2 2 -3 0 -3 -6z"/>
<path d="M662 145 c0 -16 2 -22 5 -12 2 9 2 23 0 30 -3 6 -5 -1 -5 -18z"/>
<path d="M701 160 c0 -8 4 -22 9 -30 12 -18 12 -2 0 25 -6 13 -9 15 -9 5z"/>
<path d="M732 145 c0 -16 2 -22 5 -12 2 9 2 23 0 30 -3 6 -5 -1 -5 -18z"/>
<path d="M762 145 c0 -16 2 -22 5 -12 2 9 2 23 0 30 -3 6 -5 -1 -5 -18z"/>
<path d="M782 150 c0 -14 2 -19 5 -12 2 6 2 18 0 25 -3 6 -5 1 -5 -13z"/>
<path d="M812 145 c0 -16 2 -22 5 -12 2 9 2 23 0 30 -3 6 -5 -1 -5 -18z"/>
<path d="M931 144 c0 -11 3 -14 6 -6 3 7 2 16 -1 19 -3 4 -6 -2 -5 -13z"/>
<path d="M461 44 c0 -11 3 -14 6 -6 3 7 2 16 -1 19 -3 4 -6 -2 -5 -13z"/>
<path d="M490 57 c0 -4 9 -16 20 -27 11 -11 20 -16 20 -12 0 5 -9 17 -20 27
-11 10 -20 15 -20 12z"/>
<path d="M562 35 c0 -17 2 -22 5 -12 2 9 2 23 0 30 -3 6 -5 -1 -5 -18z"/>
<path d="M680 41 c0 -11 4 -22 9 -25 4 -3 6 6 3 19 -5 30 -12 33 -12 6z"/>
<path d="M742 35 c0 -17 2 -22 5 -12 2 9 2 23 0 30 -3 6 -5 -1 -5 -18z"/>
<path d="M780 57 c0 -4 9 -16 20 -27 11 -11 20 -16 20 -12 0 5 -9 17 -20 27
-11 10 -20 15 -20 12z"/>
<path d="M902 40 c0 -14 2 -19 5 -12 2 6 2 18 0 25 -3 6 -5 1 -5 -13z"/>
<path d="M1072 35 c0 -17 2 -22 5 -12 2 9 2 23 0 30 -3 6 -5 -1 -5 -18z"/>
<path d="M1112 35 c0 -17 2 -22 5 -12 2 9 2 23 0 30 -3 6 -5 -1 -5 -18z"/>
<path d="M1140 52 c0 -5 9 -17 20 -27 11 -10 20 -15 20 -12 0 4 -9 16 -20 27
-11 11 -20 16 -20 12z"/>
<path d="M1190 37 c0 -15 4 -27 9 -27 6 0 8 10 6 21 -6 33 -15 36 -15 6z"/>
<path d="M380 40 c0 -5 5 -10 11 -10 5 0 7 5 4 10 -3 6 -8 10 -11 10 -2 0 -4
-4 -4 -10z"/>
<path d="M430 45 c0 -5 5 -17 10 -25 5 -8 10 -10 10 -5 0 6 -5 17 -10 25 -5 8
-10 11 -10 5z"/>
<path d="M621 34 c0 -11 3 -14 6 -6 3 7 2 16 -1 19 -3 4 -6 -2 -5 -13z"/>
<path d="M661 34 c0 -11 3 -14 6 -6 3 7 2 16 -1 19 -3 4 -6 -2 -5 -13z"/>
<path d="M860 46 c0 -2 8 -10 18 -17 15 -13 16 -12 3 4 -13 16 -21 21 -21 13z"/>
<path d="M970 40 c-9 -6 -10 -10 -3 -10 6 0 15 5 18 10 8 12 4 12 -15 0z"/>
<path d="M1030 41 c0 -5 5 -13 10 -16 6 -3 10 -2 10 4 0 5 -4 13 -10 16 -5 3
-10 2 -10 -4z"/>
</g>
</svg>
