<?xml version="1.0" standalone="no"?>
<!DOCTYPE svg PUBLIC "-//W3C//DTD SVG 20010904//EN"
 "http://www.w3.org/TR/2001/REC-SVG-20010904/DTD/svg10.dtd">
<svg version="1.0" xmlns="http://www.w3.org/2000/svg"
 width="160.000000pt" height="112.000000pt" viewBox="0 0 160.000000 112.000000"
 preserveAspectRatio="xMidYMid meet">

<g transform="translate(0.000000,112.000000) scale(0.100000,-0.100000)"
fill="#000000" stroke="none">
<path d="M195 785 c-63 -19 -120 -52 -149 -85 -39 -47 -35 -97 14 -199 31 -64
38 -87 30 -101 -14 -26 -3 -47 27 -55 67 -16 183 42 281 142 39 41 72 73 72
71 0 -2 -9 -27 -20 -56 -44 -115 -20 -166 77 -166 51 0 58 3 83 32 25 30 28
31 41 16 39 -48 175 -59 279 -24 l60 20 31 -22 c27 -21 41 -23 132 -22 109 1
215 22 285 55 67 33 93 109 41 122 -20 5 -20 6 -3 32 13 20 15 31 6 50 -10 22
-8 26 23 45 41 25 79 70 68 81 -4 4 -66 19 -138 33 -102 19 -169 25 -310 28
-178 3 -181 3 -238 -24 l-58 -28 -86 25 c-92 27 -162 32 -196 13 -12 -6 -46
-10 -75 -9 -72 3 -154 -15 -181 -40 -14 -13 -21 -32 -21 -57 -1 -40 -29 -105
-29 -67 -1 11 6 49 15 85 24 103 10 127 -61 105z m45 -36 c0 -11 -7 -58 -16
-104 -23 -115 -8 -147 38 -83 13 20 25 53 28 83 5 46 8 51 44 69 28 14 60 19
119 19 57 0 89 4 105 15 21 13 34 14 92 4 37 -6 79 -16 93 -21 l26 -10 -26
-47 c-15 -26 -22 -45 -17 -42 5 4 39 26 75 51 132 88 319 120 292 49 -4 -10 3
-8 25 8 29 22 37 23 124 16 91 -6 285 -40 296 -51 11 -10 -52 -54 -93 -66 -24
-7 -68 -9 -111 -5 -59 5 -75 4 -88 -9 -9 -9 -16 -21 -16 -27 0 -10 9 -10 155
7 60 7 80 -3 72 -37 -9 -35 -46 -48 -153 -55 -98 -6 -139 -22 -117 -43 15 -16
106 -14 176 5 80 21 117 20 117 -3 0 -47 -96 -92 -241 -113 -84 -12 -183 -6
-206 13 -7 6 -13 19 -13 29 0 24 3 24 -63 -6 -135 -62 -299 -34 -309 53 -3 27
-3 27 -22 -11 -10 -21 -30 -46 -44 -57 -45 -36 -132 -19 -132 25 0 8 14 51 30
97 51 140 38 169 -35 73 -84 -112 -219 -205 -297 -205 -42 0 -43 2 -25 30 10
17 9 26 -7 53 -97 162 -89 229 36 291 64 32 88 33 88 5z"/>
<path d="M1076 688 c-9 -36 -8 -36 36 -25 42 10 42 11 15 20 -15 5 -27 13 -27
18 0 18 -18 8 -24 -13z"/>
<path d="M857 591 c-47 -49 -67 -77 -67 -95 0 -55 68 -57 190 -8 59 25 65 30
68 60 4 37 -1 39 -28 12 -15 -15 -33 -20 -74 -20 l-55 0 20 57 c10 31 18 58
16 60 -2 2 -34 -28 -70 -66z"/>
</g>
</svg>
